<svg width="1747" height="280" viewBox="0 0 1747 280" fill="none" xmlns="http://www.w3.org/2000/svg">
<path d="M1745 2.24195V278H2V2.24195C2.96964 2.35245 4.24999 2.49789 5.83002 2.6764C9.80931 3.12596 15.6894 3.78524 23.2942 4.62427C38.5037 6.30233 60.6119 8.69942 88.2095 11.5759C143.404 17.3287 220.558 24.9992 308.396 32.6697C484.055 48.0093 702.502 63.3546 873.5 63.3546C1044.5 63.3546 1262.95 48.0093 1438.6 32.6697C1526.44 24.9992 1603.6 17.3287 1658.79 11.5759C1686.39 8.69942 1708.5 6.30233 1723.71 4.62427C1731.31 3.78524 1737.19 3.12596 1741.17 2.6764C1742.75 2.49789 1744.03 2.35245 1745 2.24195Z" fill="#2EE7FE" stroke="black" stroke-width="4"/>
</svg>
