<svg width="413" height="413" viewBox="0 0 413 413" fill="none" xmlns="http://www.w3.org/2000/svg">
<path d="M205.635 335.774C277.501 335.774 335.77 277.509 335.77 205.639C335.77 133.766 277.505 75.5 205.635 75.5C133.761 75.5 75.5 133.766 75.5 205.639C75.5 277.508 133.761 335.774 205.635 335.774Z" fill="#FDDB8A" stroke="#FDC238" stroke-width="15"/>
<path d="M194.481 67.7819L206.502 0L218.522 67.7819H194.481Z" fill="#FCE0B5"/>
<path d="M177.341 70.7804L170.642 3.13599L187.479 68.9926L177.341 70.7804Z" fill="#FCE0B5"/>
<path d="M147.761 80.2577L135.878 12.4546L170.353 72.0348L147.761 80.2577Z" fill="#FCE0B5"/>
<path d="M132.676 88.9408L103.254 27.6646L141.6 83.7892L132.676 88.9408Z" fill="#FCE0B5"/>
<path d="M108.131 107.958L73.7659 48.311L126.541 92.507L108.131 107.958Z" fill="#FCE0B5"/>
<path d="M96.9217 121.279L48.3182 73.7617L103.547 113.388L96.9217 121.279Z" fill="#FCE0B5"/>
<path d="M80.3607 147.546L27.6704 103.248L92.3811 126.725L80.3607 147.546Z" fill="#FCE0B5"/>
<path d="M74.3828 163.897L12.4577 135.869L77.9089 154.215L74.3828 163.897Z" fill="#FCE0B5"/>
<path d="M67.8073 194.242L3.14231 170.634L71.9786 170.568L67.8073 194.242Z" fill="#FCE0B5"/>
<path d="M67.782 211.649L0 206.49L67.782 201.345V211.649Z" fill="#FCE0B5"/>
<path d="M71.9821 242.415L3.14231 242.352L67.8037 218.741L71.9821 242.415Z" fill="#FCE0B5"/>
<path d="M77.9087 258.781L12.4541 277.117L74.3897 249.098L77.9087 258.781Z" fill="#FCE0B5"/>
<path d="M92.3798 286.258L27.6655 309.738L80.3594 265.44L92.3798 286.258Z" fill="#FCE0B5"/>
<path d="M103.554 299.613L48.3105 339.229L96.9317 291.715L103.554 299.613Z" fill="#FCE0B5"/>
<path d="M126.541 320.478L73.7623 364.678L108.131 305.024L126.541 320.478Z" fill="#FCE0B5"/>
<path d="M141.608 329.204L103.247 385.328L132.683 324.052L141.608 329.204Z" fill="#FCE0B5"/>
<path d="M170.349 340.949L135.874 400.54L147.761 332.73L170.349 340.949Z" fill="#FCE0B5"/>
<path d="M187.486 343.994L170.638 409.854L177.345 342.206L187.486 343.994Z" fill="#FCE0B5"/>
<path d="M218.515 345.205L206.498 412.994L194.475 345.205H218.515Z" fill="#FCE0B5"/>
<path d="M235.662 342.206L242.358 409.854L225.521 343.99L235.662 342.206Z" fill="#FCE0B5"/>
<path d="M265.228 332.733L277.122 400.539L242.637 340.955L265.228 332.733Z" fill="#FCE0B5"/>
<path d="M280.324 324.044L309.749 385.328L271.399 329.196L280.324 324.044Z" fill="#FCE0B5"/>
<path d="M304.866 305.03L339.231 364.681L286.449 320.485L304.866 305.03Z" fill="#FCE0B5"/>
<path d="M316.075 291.708L364.685 339.225L309.453 299.599L316.075 291.708Z" fill="#FCE0B5"/>
<path d="M332.633 265.448L385.327 309.746L320.613 286.266L332.633 265.448Z" fill="#FCE0B5"/>
<path d="M338.613 249.089L400.542 277.121L335.084 258.771L338.613 249.089Z" fill="#FCE0B5"/>
<path d="M345.189 218.748L409.858 242.355L341.015 242.422L345.189 218.748Z" fill="#FCE0B5"/>
<path d="M345.214 201.334L413 206.492L345.214 211.637V201.334Z" fill="#FCE0B5"/>
<path d="M341.011 170.574L409.861 170.637L345.193 194.248L341.011 170.574Z" fill="#FCE0B5"/>
<path d="M335.084 154.202L400.542 135.87L338.606 163.885L335.084 154.202Z" fill="#FCE0B5"/>
<path d="M320.613 126.732L385.331 103.248L332.633 147.553L320.613 126.732Z" fill="#FCE0B5"/>
<path d="M309.442 113.381L364.689 73.7617L316.064 121.272L309.442 113.381Z" fill="#FCE0B5"/>
<path d="M286.456 92.5139L339.238 48.3074L304.873 107.965L286.456 92.5139Z" fill="#FCE0B5"/>
<path d="M271.385 83.7857L309.753 27.6646L280.31 88.9373L271.385 83.7857Z" fill="#FCE0B5"/>
<path d="M242.648 72.0382L277.129 12.4509L265.239 80.261L242.648 72.0382Z" fill="#FCE0B5"/>
<path d="M225.508 68.9904L242.366 3.13379L235.652 70.7817L225.508 68.9904Z" fill="#FCE0B5"/>
</svg>
