<svg width="83" height="41" viewBox="0 0 83 41" fill="none" xmlns="http://www.w3.org/2000/svg">
<path d="M38.2991 5.21113C36.9061 2.80113 34.8221 0.509132 32.0731 0.0731319C29.7101 -0.301868 27.3061 0.807128 25.5591 2.44213C23.8121 4.07713 22.6062 6.19413 21.4272 8.27513C18.7312 6.15513 14.8021 5.74013 11.7221 7.25013C8.64213 8.76013 6.56515 12.1211 6.59115 15.5511C6.59715 16.3801 7.13314 17.4881 7.90814 17.1941C8.16614 17.0961 8.33915 16.8591 8.50515 16.6381C11.3252 12.8901 16.3651 10.9571 20.9681 11.8581L23.8461 14.5041C24.0461 15.0181 24.3012 15.5881 24.8192 15.7771C25.2392 15.9301 25.7041 15.7811 26.1161 15.6091C27.5041 15.0291 28.7791 14.1781 29.8471 13.1191C28.1001 12.3491 26.3541 11.5791 24.6071 10.8091C27.5511 7.51613 32.3022 5.95213 36.6262 6.85113C37.3362 6.99913 38.3001 7.08313 38.5631 6.40813C38.7181 6.01213 38.5111 5.57713 38.2991 5.21113Z" fill="#403F57"/>
<path d="M18.5321 33.8341C17.7171 32.4261 16.5001 31.0861 14.8931 30.8311C13.5121 30.6121 12.1071 31.2601 11.0861 32.2151C10.0651 33.1711 9.36013 34.4081 8.67113 35.6251C7.09513 34.3861 4.79913 34.1431 2.99913 35.0261C1.19913 35.9091 -0.0148625 37.8731 0.000137454 39.8781C0.00413745 40.3621 0.317126 41.0101 0.770126 40.8381C0.921126 40.7811 1.02213 40.6421 1.11913 40.5131C2.76713 38.3221 5.71312 37.1932 8.40312 37.7192L10.0851 39.2651C10.2021 39.5651 10.3511 39.8981 10.6541 40.0091C10.8991 40.0981 11.1711 40.0112 11.4121 39.9112C12.2231 39.5722 12.9681 39.0752 13.5931 38.4562C12.5721 38.0062 11.5511 37.5561 10.5301 37.1061C12.2511 35.1821 15.0281 34.2672 17.5551 34.7922C17.9701 34.8782 18.5331 34.9271 18.6871 34.5331C18.7771 34.3021 18.6561 34.0481 18.5321 33.8341Z" fill="#403F57"/>
<path d="M66.9962 10.2072C68.3652 9.44815 69.6632 8.56115 70.8672 7.56015C69.4612 6.99915 68.0191 6.53315 66.5511 6.16415C66.2061 6.07715 65.8311 5.99815 65.5031 6.13415C65.1471 6.28215 64.9361 6.64215 64.7401 6.97415C63.5771 8.94415 61.1382 11.7802 61.1382 11.7802C56.7352 14.7452 51.9542 17.1502 46.9482 18.9182C49.6442 20.6522 53.0502 21.2432 56.1732 20.5182C59.2962 19.7932 62.0931 17.7602 63.7481 15.0152C69.0341 18.9672 76.6981 19.4201 82.4131 16.1181C78.4741 12.1621 71.3152 13.7442 66.9962 10.2072Z" fill="#403F57"/>
</svg>
