<svg width="1728" height="127" viewBox="0 0 1728 127" fill="none" xmlns="http://www.w3.org/2000/svg">
<g clip-path="url(#clip0_95_2)">
<mask id="path-1-inside-1_95_2" fill="white">
<path d="M1731.32 107.544L1730.45 110.387L1730.89 112.824L1730.02 115.668L1728.28 118.512L1725.67 117.293L1723.06 118.918L1718.29 119.729L1713.95 120.428L1711.46 119.729H1707L1704.38 120.542L1707 117.293L1709.6 111.201L1707.42 111.606L1703.52 114.043L1700.48 116.887L1697.81 118.512C1697.81 118.512 1695.27 120.542 1694.4 120.948C1693.53 121.354 1664.86 119.729 1664.86 119.729L1661.82 120.428L1660.51 118.512L1657.47 116.887L1654.23 116.467L1652.26 114.855L1651.4 111.606L1650.53 114.043L1648.79 113.231H1646.19L1640.97 114.043L1639.67 116.481L1636.19 117.293L1622.73 121.354L1620.13 122.979L1619.44 121.76L1615.77 121.354L1611.87 121.76L1609.26 122.757L1607.52 120.948L1605.35 120.542L1603.18 120.948L1601.01 120.428H1600.14L1599.28 121.76H1597.1L1592.32 120.542L1579.73 116.074L1581.03 120.542L1578.43 121.354L1576.25 122.757L1573.21 122.979L1570.6 122.573L1566.26 120.948L1561.92 117.699L1559.75 114.855L1557.58 113.134L1556.27 111.201L1555.84 107.544L1558.01 105.513C1558.01 105.513 1558.01 103.888 1557.58 103.524C1557.14 101.451 1555.4 103.524 1555.4 103.524C1555.4 103.524 1554.73 103.524 1553.42 103.076C1552.36 103.482 1552.8 106.326 1552.8 106.326L1550.62 109.8L1549.32 114.043L1548.45 115.668L1543.67 117.293H1538.46L1526.3 118.104H1520.22L1498.07 116.481L1495.03 116.887L1494.16 116.467L1494.59 111.606L1492.85 110.793H1490.02C1490.02 110.793 1486.78 109.982 1486.34 110.793L1484.6 105.919L1484.16 101.451L1482.86 106.326L1482.43 110.793H1480.69C1480.69 110.793 1477.65 109.982 1476.78 109.982C1475.91 109.982 1473.31 112.012 1473.31 112.012L1470.7 116.467L1468.1 116.074L1465.49 116.887L1462.89 120.428L1460.27 120.137L1456.8 122.757L1453.92 123.792H1452.02L1450.72 120.948C1450.72 120.948 1450.72 118.918 1451.15 118.104C1451.2 119.047 1451.24 118.364 1451.28 117.901L1447.25 119.745L1440.29 122.314C1440.29 122.314 1432.04 123.792 1430.74 123.792C1429.44 123.792 1419.45 126.011 1418.57 125.271C1417.71 124.531 1413.8 124.531 1410.32 123.053C1406.85 121.573 1400.34 118.616 1400.34 118.616L1399.47 116.397C1399.47 116.397 1398.6 117.876 1398.17 117.876C1397.73 117.876 1390.78 117.136 1390.78 117.136L1385.13 116.397C1382.96 116.397 1382.53 113.439 1382.53 113.439L1381.66 116.397C1379.05 117.136 1376.88 117.136 1376.88 117.136H1374.27L1370.79 117.876L1366.89 118.616C1365.15 118.616 1365.58 117.876 1364.72 117.136C1364.72 117.136 1362.98 118.616 1362.11 118.616C1359.28 118.616 1356.38 119.277 1355.6 118.616C1354.73 117.876 1353.85 117.136 1353.85 117.136L1353.11 118.616C1348.64 118.616 1346.04 117.876 1346.04 117.876L1336.92 115.658L1332.13 114.18L1331.97 112.7V110.481L1330.66 109.242V115.658L1330.84 117.136C1332.13 118.616 1333.01 119.745 1333.01 119.745C1333.01 119.745 1313.9 123.053 1312.16 122.314C1310.42 121.573 1308.25 118.616 1308.25 118.616L1305.21 117.876L1300.86 118.616H1295.87L1291.75 120.095L1288.39 118.616H1281.32C1279.15 118.616 1277.41 117.136 1277.41 117.136L1270.9 116.397L1267.26 117.136H1264.82V113.439L1262.64 118.616L1260.9 120.095C1258.73 121.976 1259.77 120.095 1258.46 119.745C1257.43 118.616 1255.69 117.876 1255.69 117.876L1254.39 115.658L1251.35 114.919C1251.35 114.919 1252.22 117.136 1250.48 117.136C1248.74 117.136 1247.87 117.876 1247.87 117.876L1247.44 120.095C1243.53 121.976 1240.92 121.573 1240.05 121.976C1239.18 120.095 1236.13 120.46 1234.84 120.095C1232.24 119.745 1233.97 120.095 1232.24 119.745C1231.15 118.616 1227.46 120.095 1227.46 120.095H1219.2C1216.6 120.095 1215.29 121.976 1215.29 121.976C1215.29 121.976 1216.19 123.053 1214.42 123.053C1213.12 123.053 1211.39 123.792 1211.39 123.792C1207.04 122.314 1206.61 122.314 1206.61 122.314L1204 121.573V117.876C1204 117.876 1205.31 114.919 1204.44 115.658C1203.57 116.397 1202.27 119.745 1201.4 119.745C1200.53 119.745 1196.18 117.136 1195.06 116.397C1192.71 115.658 1191.4 117.136 1191.4 117.136L1189.67 118.616C1189.67 118.616 1181.85 113.439 1180.98 112.7C1180.11 111.961 1175.77 106.997 1175.77 106.997C1173.16 105.305 1172.61 102.347 1172.61 102.347C1172.61 102.347 1170.12 105.305 1170.55 106.997C1170.99 109.242 1170.99 109.002 1170.12 109.742C1169.25 110.481 1167.95 111.961 1167.95 111.961L1168.82 115.658L1169.25 118.616L1167.08 120.095L1163.61 121.573C1163.61 121.573 1159.7 121.976 1157.09 121.976H1150.57L1146.23 121.573H1140.59L1137.55 123.053C1134.51 122.314 1133.64 121.976 1133.64 121.976C1133.64 121.976 1133.64 122.314 1131.9 122.314C1130.16 122.314 1130.16 121.573 1129.03 121.573C1127.55 121.573 1125.38 121.976 1125.38 121.976H1119.51C1119.43 120.88 1119.37 120.919 1119.3 120.948C1118.7 121.227 1104.98 120.548 1096.45 120.095H1088.46L1088.35 119.484L1086.72 120.428L1085.75 118.512L1084.05 117.777L1082.81 118.616H1079.34L1073.26 119.745L1067.18 120.095H1064.31L1062.96 118.764C1063.14 119.017 1063.81 119.556 1062.4 120.095C1061.09 121.976 1059.79 121.976 1059.79 121.976H1056.83C1056.83 121.976 1053.74 120.664 1050.51 120.485L1047.63 121.354L1045.02 122.979L1043.73 121.76L1040.68 121.354L1036.77 121.76L1034.17 122.757L1032.43 120.948L1030.26 120.542L1028.22 120.948L1025.92 120.428H1025.05L1024.18 121.76H1022.01L1017.22 120.542L1004.63 116.074L1005.93 120.542L1003.33 121.354L1001.16 122.757L998.111 122.979L995.505 122.573L991.163 120.948L986.821 117.699L984.65 114.855L982.479 113.134L981.177 111.201L980.742 107.544L982.913 105.513C982.913 105.513 982.913 103.888 982.479 103.524C982.045 101.451 980.308 103.524 980.308 103.524C980.308 103.524 979.006 103.524 978.465 103.076C977.269 103.482 977.703 106.326 977.703 106.326L975.524 109.8L974.221 114.043L973.353 115.668L968.577 117.293H963.497L957.287 117.699L951.2 118.104H945.122L922.969 116.481L919.93 116.887L919.061 116.467L919.495 111.606L917.759 110.793H914.285C914.285 110.793 911.672 109.982 911.237 110.793L909.501 105.919L909.066 101.451L907.764 106.326L907.33 110.793H905.593C905.593 110.793 902.553 109.982 901.685 109.982C900.817 109.982 898.211 112.012 898.211 112.012L895.606 116.467L893.001 116.074L890.388 116.887L887.782 120.428L885.177 120.137L881.704 122.757L878.23 123.792H876.927L875.625 120.948C875.625 120.948 875.625 118.918 876.059 118.104C876.493 117.293 876.927 117.293 876.927 117.293C876.927 117.293 876.059 116.467 876.059 114.855C876.059 114.449 875.191 116.467 875.191 116.467H873.888L872.585 113.637L871.356 113.256L870.627 115.668L868.882 118.512L866.277 117.293L863.672 118.918L858.896 119.729L854.554 120.428L852.071 119.729H847.598L844.993 120.542L847.598 117.293L850.212 111.201L848.041 111.606L844.125 114.043L841.085 116.887L838.423 118.512C838.423 118.512 835.875 120.542 835.006 120.948C834.138 121.354 805.469 119.729 805.469 119.729L802.429 120.428L801.126 118.512L798.085 116.887L794.839 116.467L792.872 114.855L792.004 111.606L791.136 114.043L789.398 113.231H786.792L781.579 114.043L780.276 116.481L776.801 117.293L763.336 121.354L760.73 122.979L760.053 121.76L756.386 121.354L752.477 121.76L749.871 122.757L748.133 120.948L745.961 120.542L743.79 120.948L741.618 120.428H740.749L739.881 121.76H737.709L732.93 120.542L720.334 116.074L721.637 120.542L719.031 121.354L716.859 122.757L713.819 122.979L711.212 122.573L706.869 120.948L702.526 117.699L700.354 114.855L698.182 113.134L696.879 111.201L696.444 107.544L698.616 105.513C698.616 105.513 698.616 103.888 698.182 103.524C697.747 101.451 696.01 103.524 696.01 103.524C696.01 103.524 695.341 103.524 694.03 103.076C692.969 103.482 693.403 106.326 693.403 106.326L691.232 109.8L689.929 114.043L689.061 115.668L684.282 117.293H679.07L666.907 118.104H660.827L638.674 116.481L635.633 116.887L634.765 116.467L635.199 111.606L633.461 110.793H630.628C630.628 110.793 627.381 109.982 626.946 110.793L625.209 105.919L624.774 101.451L623.472 106.326L623.037 110.793H621.3C621.3 110.793 618.259 109.982 617.39 109.982C616.522 109.982 613.915 112.012 613.915 112.012L611.309 116.467L608.703 116.074L606.097 116.887L603.491 120.428L600.885 120.137L597.41 122.757L594.524 123.792H592.632L591.328 120.948C591.328 120.948 591.328 118.918 591.762 118.104C591.803 119.047 591.843 118.364 591.883 117.901L587.854 119.745L580.903 122.314C580.903 122.314 572.651 123.792 571.348 123.792C570.044 123.792 560.054 126.011 559.186 125.271C558.317 124.531 554.407 124.531 550.933 123.053C547.458 121.573 540.942 118.616 540.942 118.616L540.074 116.397C540.074 116.397 539.204 117.876 538.77 117.876C538.336 117.876 531.386 117.136 531.386 117.136L525.739 116.397C523.567 116.397 523.133 113.439 523.133 113.439L522.265 116.397C519.659 117.136 517.487 117.136 517.487 117.136H514.88L511.406 117.876L507.496 118.616C505.759 118.616 506.194 117.876 505.324 117.136C505.324 117.136 503.587 118.616 502.718 118.616C499.885 118.616 496.98 119.277 496.203 118.616C495.335 117.876 494.465 117.136 494.465 117.136L493.716 118.616C489.253 118.616 486.647 117.876 486.647 117.876L477.526 115.658L472.747 114.18L472.579 112.7V110.481L471.268 109.242V115.658L471.444 117.136C472.747 118.616 473.616 119.745 473.616 119.745C473.616 119.745 454.504 123.053 452.766 122.314C451.03 121.573 448.858 118.616 448.858 118.616L445.817 117.876L441.473 118.616H436.483L432.351 120.095L428.995 118.616H421.927C419.755 118.616 418.018 117.136 418.018 117.136L411.502 116.397L407.867 117.136H405.421V113.439L403.249 118.616L401.512 120.095C399.34 121.976 400.379 120.095 399.068 119.745C398.037 118.616 396.3 117.876 396.3 117.876L394.996 115.658L391.956 114.919C391.956 114.919 392.824 117.136 391.087 117.136C389.35 117.136 388.481 117.876 388.481 117.876L388.047 120.095C384.137 121.976 381.531 121.573 380.663 121.976C379.793 120.095 376.735 120.46 375.45 120.095C372.844 119.745 374.581 120.095 372.844 119.745C371.762 118.616 368.066 120.095 368.066 120.095H359.813C357.207 120.095 355.904 121.976 355.904 121.976C355.904 121.976 356.803 123.053 355.035 123.053C353.732 123.053 351.995 123.792 351.995 123.792C347.651 122.314 347.217 122.314 347.217 122.314L344.61 121.573V117.876C344.61 117.876 345.913 114.919 345.045 115.658C344.176 116.397 342.873 119.745 342.004 119.745C341.136 119.745 336.792 117.136 335.666 116.397C333.317 115.658 332.014 117.136 332.014 117.136L330.276 118.616C330.276 118.616 322.458 113.439 321.589 112.7C320.721 111.961 316.377 106.997 316.377 106.997C313.77 105.305 313.219 102.347 313.219 102.347C313.219 102.347 310.73 105.305 311.164 106.997C311.598 109.242 311.598 109.002 310.73 109.742C309.862 110.481 308.558 111.961 308.558 111.961L309.427 115.658L309.862 118.616L307.69 120.095L304.214 121.573C304.214 121.573 300.305 121.976 297.699 121.976H291.184L286.84 121.573H281.194L278.153 123.053C275.112 122.314 274.243 121.976 274.243 121.976C274.243 121.976 274.243 122.314 272.506 122.314C270.769 122.314 270.769 121.573 269.635 121.573C268.163 121.573 265.991 121.976 265.991 121.976H260.119C260.044 120.88 259.973 120.919 259.91 120.948C259.312 121.227 245.587 120.548 237.059 120.095H229.07L228.959 119.484L227.332 120.428L226.354 118.512L224.655 117.777L223.423 118.616H219.948L213.867 119.745L207.786 120.095H204.922L203.573 118.764C203.754 119.017 204.414 119.556 203.008 120.095C201.705 121.976 200.402 121.976 200.402 121.976H197.443C197.443 121.976 194.346 120.664 191.121 120.485L188.24 121.354L185.633 122.979L184.331 121.76L181.29 121.354L177.381 121.76L174.775 122.757L173.037 120.948L170.865 120.542L168.826 120.948L166.522 120.428H165.653L164.784 121.76H162.612L157.834 120.542L145.238 116.074L146.541 120.542L143.935 121.354L141.763 122.757L138.722 122.979L136.116 122.573L131.773 120.948L127.429 117.699L125.257 114.855L123.085 113.134L121.782 111.201L121.348 107.544L123.519 105.513C123.519 105.513 123.519 103.888 123.085 103.524C122.651 101.451 120.913 103.524 120.913 103.524C120.913 103.524 119.611 103.524 119.073 103.076C117.873 103.482 118.307 106.326 118.307 106.326L116.136 109.8L114.832 114.043L113.964 115.668L109.186 117.293H104.106L97.8925 117.699L91.8112 118.104H85.7299L63.5775 116.481L60.5372 116.887L59.668 116.467L60.103 111.606L58.3654 110.793H54.8901C54.8901 110.793 52.2841 109.982 51.8499 110.793L50.1123 105.919L49.6781 101.451L48.3747 106.326L47.9405 110.793H46.2028C46.2028 110.793 43.1626 109.982 42.2934 109.982C41.425 109.982 38.8189 112.012 38.8189 112.012L36.2129 116.467L33.6069 116.074L31 116.887L28.394 120.428L25.788 120.137L22.3127 122.757L18.8383 123.792H17.5349L16.2323 120.948C16.2323 120.948 16.2323 118.918 16.6665 118.104C17.1007 117.293 17.5349 117.293 17.5349 117.293C17.5349 117.293 16.6665 116.467 16.6665 114.855C16.6665 114.449 15.7973 116.467 15.7973 116.467H14.4946L13.1912 113.637L11.8886 113.231L9.28259 114.449L5.80734 111.606L1.89788 109.8C1.89788 109.8 -4.43737 108.545 -4.18258 107.97C-3.94008 107.743 -4.18258 -5 -4.18258 -5H1476.35L1732.19 -4.87168V104.701L1731.32 107.544Z"/>
</mask>
<path d="M1731.32 107.544L1730.45 110.387L1730.89 112.824L1730.02 115.668L1728.28 118.512L1725.67 117.293L1723.06 118.918L1718.29 119.729L1713.95 120.428L1711.46 119.729H1707L1704.38 120.542L1707 117.293L1709.6 111.201L1707.42 111.606L1703.52 114.043L1700.48 116.887L1697.81 118.512C1697.81 118.512 1695.27 120.542 1694.4 120.948C1693.53 121.354 1664.86 119.729 1664.86 119.729L1661.82 120.428L1660.51 118.512L1657.47 116.887L1654.23 116.467L1652.26 114.855L1651.4 111.606L1650.53 114.043L1648.79 113.231H1646.19L1640.97 114.043L1639.67 116.481L1636.19 117.293L1622.73 121.354L1620.13 122.979L1619.44 121.76L1615.77 121.354L1611.87 121.76L1609.26 122.757L1607.52 120.948L1605.35 120.542L1603.18 120.948L1601.01 120.428H1600.14L1599.28 121.76H1597.1L1592.32 120.542L1579.73 116.074L1581.03 120.542L1578.43 121.354L1576.25 122.757L1573.21 122.979L1570.6 122.573L1566.26 120.948L1561.92 117.699L1559.75 114.855L1557.58 113.134L1556.27 111.201L1555.84 107.544L1558.01 105.513C1558.01 105.513 1558.01 103.888 1557.58 103.524C1557.14 101.451 1555.4 103.524 1555.4 103.524C1555.4 103.524 1554.73 103.524 1553.42 103.076C1552.36 103.482 1552.8 106.326 1552.8 106.326L1550.62 109.8L1549.32 114.043L1548.45 115.668L1543.67 117.293H1538.46L1526.3 118.104H1520.22L1498.07 116.481L1495.03 116.887L1494.16 116.467L1494.59 111.606L1492.85 110.793H1490.02C1490.02 110.793 1486.78 109.982 1486.34 110.793L1484.6 105.919L1484.16 101.451L1482.86 106.326L1482.43 110.793H1480.69C1480.69 110.793 1477.65 109.982 1476.78 109.982C1475.91 109.982 1473.31 112.012 1473.31 112.012L1470.7 116.467L1468.1 116.074L1465.49 116.887L1462.89 120.428L1460.27 120.137L1456.8 122.757L1453.92 123.792H1452.02L1450.72 120.948C1450.72 120.948 1450.72 118.918 1451.15 118.104C1451.2 119.047 1451.24 118.364 1451.28 117.901L1447.25 119.745L1440.29 122.314C1440.29 122.314 1432.04 123.792 1430.74 123.792C1429.44 123.792 1419.45 126.011 1418.57 125.271C1417.71 124.531 1413.8 124.531 1410.32 123.053C1406.85 121.573 1400.34 118.616 1400.34 118.616L1399.47 116.397C1399.47 116.397 1398.6 117.876 1398.17 117.876C1397.73 117.876 1390.78 117.136 1390.78 117.136L1385.13 116.397C1382.96 116.397 1382.53 113.439 1382.53 113.439L1381.66 116.397C1379.05 117.136 1376.88 117.136 1376.88 117.136H1374.27L1370.79 117.876L1366.89 118.616C1365.15 118.616 1365.58 117.876 1364.72 117.136C1364.72 117.136 1362.98 118.616 1362.11 118.616C1359.28 118.616 1356.38 119.277 1355.6 118.616C1354.73 117.876 1353.85 117.136 1353.85 117.136L1353.11 118.616C1348.64 118.616 1346.04 117.876 1346.04 117.876L1336.92 115.658L1332.13 114.18L1331.97 112.7V110.481L1330.66 109.242V115.658L1330.84 117.136C1332.13 118.616 1333.01 119.745 1333.01 119.745C1333.01 119.745 1313.9 123.053 1312.16 122.314C1310.42 121.573 1308.25 118.616 1308.25 118.616L1305.21 117.876L1300.86 118.616H1295.87L1291.75 120.095L1288.39 118.616H1281.32C1279.15 118.616 1277.41 117.136 1277.41 117.136L1270.9 116.397L1267.26 117.136H1264.82V113.439L1262.64 118.616L1260.9 120.095C1258.73 121.976 1259.77 120.095 1258.46 119.745C1257.43 118.616 1255.69 117.876 1255.69 117.876L1254.39 115.658L1251.35 114.919C1251.35 114.919 1252.22 117.136 1250.48 117.136C1248.74 117.136 1247.87 117.876 1247.87 117.876L1247.44 120.095C1243.53 121.976 1240.92 121.573 1240.05 121.976C1239.18 120.095 1236.13 120.46 1234.84 120.095C1232.24 119.745 1233.97 120.095 1232.24 119.745C1231.15 118.616 1227.46 120.095 1227.46 120.095H1219.2C1216.6 120.095 1215.29 121.976 1215.29 121.976C1215.29 121.976 1216.19 123.053 1214.42 123.053C1213.12 123.053 1211.39 123.792 1211.39 123.792C1207.04 122.314 1206.61 122.314 1206.61 122.314L1204 121.573V117.876C1204 117.876 1205.31 114.919 1204.44 115.658C1203.57 116.397 1202.27 119.745 1201.4 119.745C1200.53 119.745 1196.18 117.136 1195.06 116.397C1192.71 115.658 1191.4 117.136 1191.4 117.136L1189.67 118.616C1189.67 118.616 1181.85 113.439 1180.98 112.7C1180.11 111.961 1175.77 106.997 1175.77 106.997C1173.16 105.305 1172.61 102.347 1172.61 102.347C1172.61 102.347 1170.12 105.305 1170.55 106.997C1170.99 109.242 1170.99 109.002 1170.12 109.742C1169.25 110.481 1167.95 111.961 1167.95 111.961L1168.82 115.658L1169.25 118.616L1167.08 120.095L1163.61 121.573C1163.61 121.573 1159.7 121.976 1157.09 121.976H1150.57L1146.23 121.573H1140.59L1137.55 123.053C1134.51 122.314 1133.64 121.976 1133.64 121.976C1133.64 121.976 1133.64 122.314 1131.9 122.314C1130.16 122.314 1130.16 121.573 1129.03 121.573C1127.55 121.573 1125.38 121.976 1125.38 121.976H1119.51C1119.43 120.88 1119.37 120.919 1119.3 120.948C1118.7 121.227 1104.98 120.548 1096.45 120.095H1088.46L1088.35 119.484L1086.72 120.428L1085.75 118.512L1084.05 117.777L1082.81 118.616H1079.34L1073.26 119.745L1067.18 120.095H1064.31L1062.96 118.764C1063.14 119.017 1063.81 119.556 1062.4 120.095C1061.09 121.976 1059.79 121.976 1059.79 121.976H1056.83C1056.83 121.976 1053.74 120.664 1050.51 120.485L1047.63 121.354L1045.02 122.979L1043.73 121.76L1040.68 121.354L1036.77 121.76L1034.17 122.757L1032.43 120.948L1030.26 120.542L1028.22 120.948L1025.92 120.428H1025.05L1024.18 121.76H1022.01L1017.22 120.542L1004.63 116.074L1005.93 120.542L1003.33 121.354L1001.16 122.757L998.111 122.979L995.505 122.573L991.163 120.948L986.821 117.699L984.65 114.855L982.479 113.134L981.177 111.201L980.742 107.544L982.913 105.513C982.913 105.513 982.913 103.888 982.479 103.524C982.045 101.451 980.308 103.524 980.308 103.524C980.308 103.524 979.006 103.524 978.465 103.076C977.269 103.482 977.703 106.326 977.703 106.326L975.524 109.8L974.221 114.043L973.353 115.668L968.577 117.293H963.497L957.287 117.699L951.2 118.104H945.122L922.969 116.481L919.93 116.887L919.061 116.467L919.495 111.606L917.759 110.793H914.285C914.285 110.793 911.672 109.982 911.237 110.793L909.501 105.919L909.066 101.451L907.764 106.326L907.33 110.793H905.593C905.593 110.793 902.553 109.982 901.685 109.982C900.817 109.982 898.211 112.012 898.211 112.012L895.606 116.467L893.001 116.074L890.388 116.887L887.782 120.428L885.177 120.137L881.704 122.757L878.23 123.792H876.927L875.625 120.948C875.625 120.948 875.625 118.918 876.059 118.104C876.493 117.293 876.927 117.293 876.927 117.293C876.927 117.293 876.059 116.467 876.059 114.855C876.059 114.449 875.191 116.467 875.191 116.467H873.888L872.585 113.637L871.356 113.256L870.627 115.668L868.882 118.512L866.277 117.293L863.672 118.918L858.896 119.729L854.554 120.428L852.071 119.729H847.598L844.993 120.542L847.598 117.293L850.212 111.201L848.041 111.606L844.125 114.043L841.085 116.887L838.423 118.512C838.423 118.512 835.875 120.542 835.006 120.948C834.138 121.354 805.469 119.729 805.469 119.729L802.429 120.428L801.126 118.512L798.085 116.887L794.839 116.467L792.872 114.855L792.004 111.606L791.136 114.043L789.398 113.231H786.792L781.579 114.043L780.276 116.481L776.801 117.293L763.336 121.354L760.73 122.979L760.053 121.76L756.386 121.354L752.477 121.76L749.871 122.757L748.133 120.948L745.961 120.542L743.79 120.948L741.618 120.428H740.749L739.881 121.76H737.709L732.93 120.542L720.334 116.074L721.637 120.542L719.031 121.354L716.859 122.757L713.819 122.979L711.212 122.573L706.869 120.948L702.526 117.699L700.354 114.855L698.182 113.134L696.879 111.201L696.444 107.544L698.616 105.513C698.616 105.513 698.616 103.888 698.182 103.524C697.747 101.451 696.01 103.524 696.01 103.524C696.01 103.524 695.341 103.524 694.03 103.076C692.969 103.482 693.403 106.326 693.403 106.326L691.232 109.8L689.929 114.043L689.061 115.668L684.282 117.293H679.07L666.907 118.104H660.827L638.674 116.481L635.633 116.887L634.765 116.467L635.199 111.606L633.461 110.793H630.628C630.628 110.793 627.381 109.982 626.946 110.793L625.209 105.919L624.774 101.451L623.472 106.326L623.037 110.793H621.3C621.3 110.793 618.259 109.982 617.39 109.982C616.522 109.982 613.915 112.012 613.915 112.012L611.309 116.467L608.703 116.074L606.097 116.887L603.491 120.428L600.885 120.137L597.41 122.757L594.524 123.792H592.632L591.328 120.948C591.328 120.948 591.328 118.918 591.762 118.104C591.803 119.047 591.843 118.364 591.883 117.901L587.854 119.745L580.903 122.314C580.903 122.314 572.651 123.792 571.348 123.792C570.044 123.792 560.054 126.011 559.186 125.271C558.317 124.531 554.407 124.531 550.933 123.053C547.458 121.573 540.942 118.616 540.942 118.616L540.074 116.397C540.074 116.397 539.204 117.876 538.77 117.876C538.336 117.876 531.386 117.136 531.386 117.136L525.739 116.397C523.567 116.397 523.133 113.439 523.133 113.439L522.265 116.397C519.659 117.136 517.487 117.136 517.487 117.136H514.88L511.406 117.876L507.496 118.616C505.759 118.616 506.194 117.876 505.324 117.136C505.324 117.136 503.587 118.616 502.718 118.616C499.885 118.616 496.98 119.277 496.203 118.616C495.335 117.876 494.465 117.136 494.465 117.136L493.716 118.616C489.253 118.616 486.647 117.876 486.647 117.876L477.526 115.658L472.747 114.18L472.579 112.7V110.481L471.268 109.242V115.658L471.444 117.136C472.747 118.616 473.616 119.745 473.616 119.745C473.616 119.745 454.504 123.053 452.766 122.314C451.03 121.573 448.858 118.616 448.858 118.616L445.817 117.876L441.473 118.616H436.483L432.351 120.095L428.995 118.616H421.927C419.755 118.616 418.018 117.136 418.018 117.136L411.502 116.397L407.867 117.136H405.421V113.439L403.249 118.616L401.512 120.095C399.34 121.976 400.379 120.095 399.068 119.745C398.037 118.616 396.3 117.876 396.3 117.876L394.996 115.658L391.956 114.919C391.956 114.919 392.824 117.136 391.087 117.136C389.35 117.136 388.481 117.876 388.481 117.876L388.047 120.095C384.137 121.976 381.531 121.573 380.663 121.976C379.793 120.095 376.735 120.46 375.45 120.095C372.844 119.745 374.581 120.095 372.844 119.745C371.762 118.616 368.066 120.095 368.066 120.095H359.813C357.207 120.095 355.904 121.976 355.904 121.976C355.904 121.976 356.803 123.053 355.035 123.053C353.732 123.053 351.995 123.792 351.995 123.792C347.651 122.314 347.217 122.314 347.217 122.314L344.61 121.573V117.876C344.61 117.876 345.913 114.919 345.045 115.658C344.176 116.397 342.873 119.745 342.004 119.745C341.136 119.745 336.792 117.136 335.666 116.397C333.317 115.658 332.014 117.136 332.014 117.136L330.276 118.616C330.276 118.616 322.458 113.439 321.589 112.7C320.721 111.961 316.377 106.997 316.377 106.997C313.77 105.305 313.219 102.347 313.219 102.347C313.219 102.347 310.73 105.305 311.164 106.997C311.598 109.242 311.598 109.002 310.73 109.742C309.862 110.481 308.558 111.961 308.558 111.961L309.427 115.658L309.862 118.616L307.69 120.095L304.214 121.573C304.214 121.573 300.305 121.976 297.699 121.976H291.184L286.84 121.573H281.194L278.153 123.053C275.112 122.314 274.243 121.976 274.243 121.976C274.243 121.976 274.243 122.314 272.506 122.314C270.769 122.314 270.769 121.573 269.635 121.573C268.163 121.573 265.991 121.976 265.991 121.976H260.119C260.044 120.88 259.973 120.919 259.91 120.948C259.312 121.227 245.587 120.548 237.059 120.095H229.07L228.959 119.484L227.332 120.428L226.354 118.512L224.655 117.777L223.423 118.616H219.948L213.867 119.745L207.786 120.095H204.922L203.573 118.764C203.754 119.017 204.414 119.556 203.008 120.095C201.705 121.976 200.402 121.976 200.402 121.976H197.443C197.443 121.976 194.346 120.664 191.121 120.485L188.24 121.354L185.633 122.979L184.331 121.76L181.29 121.354L177.381 121.76L174.775 122.757L173.037 120.948L170.865 120.542L168.826 120.948L166.522 120.428H165.653L164.784 121.76H162.612L157.834 120.542L145.238 116.074L146.541 120.542L143.935 121.354L141.763 122.757L138.722 122.979L136.116 122.573L131.773 120.948L127.429 117.699L125.257 114.855L123.085 113.134L121.782 111.201L121.348 107.544L123.519 105.513C123.519 105.513 123.519 103.888 123.085 103.524C122.651 101.451 120.913 103.524 120.913 103.524C120.913 103.524 119.611 103.524 119.073 103.076C117.873 103.482 118.307 106.326 118.307 106.326L116.136 109.8L114.832 114.043L113.964 115.668L109.186 117.293H104.106L97.8925 117.699L91.8112 118.104H85.7299L63.5775 116.481L60.5372 116.887L59.668 116.467L60.103 111.606L58.3654 110.793H54.8901C54.8901 110.793 52.2841 109.982 51.8499 110.793L50.1123 105.919L49.6781 101.451L48.3747 106.326L47.9405 110.793H46.2028C46.2028 110.793 43.1626 109.982 42.2934 109.982C41.425 109.982 38.8189 112.012 38.8189 112.012L36.2129 116.467L33.6069 116.074L31 116.887L28.394 120.428L25.788 120.137L22.3127 122.757L18.8383 123.792H17.5349L16.2323 120.948C16.2323 120.948 16.2323 118.918 16.6665 118.104C17.1007 117.293 17.5349 117.293 17.5349 117.293C17.5349 117.293 16.6665 116.467 16.6665 114.855C16.6665 114.449 15.7973 116.467 15.7973 116.467H14.4946L13.1912 113.637L11.8886 113.231L9.28259 114.449L5.80734 111.606L1.89788 109.8C1.89788 109.8 -4.43737 108.545 -4.18258 107.97C-3.94008 107.743 -4.18258 -5 -4.18258 -5H1476.35L1732.19 -4.87168V104.701L1731.32 107.544Z" fill="#76D1FF" stroke="black" stroke-width="4" mask="url(#path-1-inside-1_95_2)"/>
</g>
<defs>
<clipPath id="clip0_95_2">
<rect width="1728" height="127" fill="white"/>
</clipPath>
</defs>
</svg>
