<svg width="35" height="35" viewBox="0 0 35 35" fill="none" xmlns="http://www.w3.org/2000/svg">
<path d="M6.6448 21.5984L5.14862 21.5468C4.355 21.5193 3.60477 21.1779 3.06298 20.5973C2.52118 20.0167 2.2322 19.2447 2.2596 18.4511L2.72456 4.98551C2.75196 4.19189 3.0935 3.44166 3.67406 2.89987C4.2546 2.35806 5.02661 2.06908 5.82023 2.09649L19.2858 2.56145C20.0794 2.58885 20.8296 2.93039 21.3715 3.51095C21.9133 4.09149 22.2022 4.8635 22.1748 5.65712L22.1232 7.15329M15.9318 12.9313L29.3974 13.3963C31.05 13.4534 32.3435 14.8394 32.2864 16.492L31.8215 29.9575C31.7644 31.6101 30.3784 32.9036 28.7258 32.8466L15.2602 32.3816C13.6076 32.3245 12.3141 30.9385 12.3712 29.2859L12.8361 15.8204C12.8932 14.1678 14.2792 12.8743 15.9318 12.9313Z" stroke="#1A1A1A" stroke-width="3.95797" stroke-linecap="round" stroke-linejoin="round"/>
</svg>
