<svg width="25" height="29" viewBox="0 0 25 29" fill="none" xmlns="http://www.w3.org/2000/svg">
<g clip-path="url(#clip0_1_248)">
<path fill-rule="evenodd" clip-rule="evenodd" d="M14.6756 10.3304C15.5627 9.88803 16.6915 9.23688 17.8216 8.34475C18.0599 8.83958 18.086 9.2714 17.9633 9.62007C17.8763 9.8658 17.7123 10.0795 17.4967 10.2496C17.2633 10.4333 16.9717 10.5671 16.6495 10.6394C16.0379 10.7772 15.324 10.6967 14.6756 10.3304ZM14.8294 14.8627L16.0037 15.541C13.606 16.8849 12.9542 19.3802 12.1799 21.8107C11.4057 19.3802 10.7538 16.8849 8.35614 15.541L9.53045 14.8627C9.64405 14.8198 9.74114 14.742 9.80782 14.6405C9.8745 14.539 9.90734 14.419 9.90165 14.2977C9.79406 12.0215 10.4087 11.0149 11.2377 10.3829C11.535 10.1565 11.8596 10.0428 12.1799 10.0428C12.5001 10.0428 12.8247 10.1565 13.1222 10.3829C13.9512 11.0149 14.5658 12.0215 14.4582 14.2977C14.4525 14.419 14.4854 14.539 14.552 14.6405C14.6187 14.742 14.7158 14.8198 14.8294 14.8627ZM12.1799 -1.57956e-07C13.5373 0.0364431 14.8981 0.299956 16.079 0.81258C16.8968 1.16802 17.6599 1.63753 18.3509 2.19897C18.6629 2.45243 18.9199 2.69729 19.2029 2.97917C19.9663 3.00556 21.0819 2.1575 21.5999 1.36397C20.7085 4.2862 16.641 7.7371 13.825 9.05757C13.8238 9.05708 13.823 9.05641 13.8222 9.05583C13.3168 8.66993 12.7484 8.47699 12.1799 8.47699C11.6114 8.47699 11.0431 8.66994 10.5377 9.05583C10.5368 9.05631 10.5361 9.05718 10.5349 9.05757C7.71882 7.7371 3.65137 4.2862 2.76001 1.36397C3.27785 2.1575 4.39348 3.00556 5.15686 2.97917C5.44 2.69739 5.69694 2.45243 6.00888 2.19897C6.69985 1.63753 7.46294 1.16802 8.28074 0.81258C9.46181 0.299957 10.8226 0.0364432 12.1799 -1.57956e-07ZM9.68415 10.3304C8.79713 9.88803 7.66826 9.23688 6.53823 8.34475C6.29994 8.83959 6.27384 9.2714 6.39651 9.62007C6.48361 9.8658 6.64756 10.0795 6.86303 10.2496C7.09657 10.4333 7.38812 10.5671 7.71041 10.6394C8.32192 10.7772 9.0358 10.6967 9.68415 10.3304Z" fill="#022028"/>
<path fill-rule="evenodd" clip-rule="evenodd" d="M19.0595 7.2515C19.6816 6.62365 20.2298 5.92871 20.6706 5.30859L20.8945 5.72996C21.6152 7.17194 21.9897 8.60812 21.9897 10.2244L21.9882 12.7891L22.0017 14.1187C22.0539 17.3827 22.7602 20.6852 24.36 23.7074L21.0127 21.0082L18.6443 24.8516L16.1561 22.5093L12.18 28.9617L8.20391 22.5094L5.7158 24.8517L3.34737 21.0083L3.08519e-07 23.7075C1.59983 20.6853 2.30608 17.3828 2.35838 14.1188L2.37191 12.7892L2.37036 10.2245C2.37036 8.60812 2.74475 7.17194 3.46569 5.73006L3.68948 5.30869C4.13028 5.92881 4.67838 6.62365 5.30062 7.25159L5.10632 7.65518C4.72884 8.43905 4.60385 9.31552 4.89791 10.1491C5.08747 10.686 5.43344 11.1464 5.87946 11.4979C6.31253 11.8392 6.82505 12.0693 7.36165 12.1901C7.7112 12.2688 8.06732 12.3012 8.42112 12.2901C8.33856 12.7581 8.30251 13.2435 8.30019 13.738L5.14267 15.5617L7.57925 16.9275C7.77399 17.0367 7.95939 17.1618 8.13353 17.3015C10.1424 19.1051 11.3501 24.4409 12.1801 27.0471C13.0102 24.4409 14.2178 19.1051 16.2268 17.3015C16.4009 17.1618 16.5863 17.0367 16.781 16.9275L19.2176 15.5617L16.06 13.738C16.0577 13.2435 16.0216 12.7581 15.9391 12.2901C16.2929 12.3012 16.649 12.2688 16.9985 12.1901C17.5351 12.0693 18.0478 11.8392 18.4807 11.4979C18.9267 11.1464 19.2727 10.686 19.4622 10.1491C19.7563 9.31552 19.6313 8.43914 19.2539 7.65518L19.0596 7.25159L19.0595 7.2515Z" fill="#022028"/>
</g>
<defs>
<clipPath id="clip0_1_248">
<rect width="24.36" height="29" fill="white"/>
</clipPath>
</defs>
</svg>
