<svg width="1728" height="65" viewBox="0 0 1728 65" fill="none" xmlns="http://www.w3.org/2000/svg">
<path d="M1770.98 52.0497C1774 36.0352 1749.64 12.8182 1749.64 12.8182C1759.81 31.2271 1749.64 52.452 1749.64 52.452C1741.5 44.4447 1736.42 29.2348 1736.42 29.2348C1725.2 39.2342 1722.84 55.651 1722.84 55.651L1710.05 40.8434L1704.84 54.8464C1691.62 45.1152 1697.29 10.4046 1697.29 10.4046C1679.51 23.6222 1672.29 50.4405 1672.29 50.4405C1668.02 36.3034 1644.17 23.2199 1644.17 23.2199C1655.78 41.648 1650.91 54.4441 1650.91 54.4441L1637.68 40.8434L1626.42 54.8464L1615.23 40.8434L1599.97 57.6431C1602.01 25.2314 1573.81 9.21694 1573.81 9.21694C1590.41 29.2348 1569.54 52.452 1569.54 52.452C1571.59 42.8738 1557.81 32.2999 1557.81 32.2999C1556.81 39.048 1551.31 45.5063 1542.07 50.8428C1530.88 34.4262 1542.07 16.8218 1542.07 16.8218C1514.59 27.2235 1509.47 50.8428 1509.47 50.8428C1504.39 34.0239 1518.64 8.41238 1518.64 8.41238C1494.23 17.9904 1478.83 56.4554 1478.83 56.4554L1468.55 39.6365L1455.28 51.724C1457.2 27.9898 1431.85 15.6916 1431.85 15.6916C1436.49 22.038 1438 28.7608 1436.29 35.3956C1434.57 42.0303 1429.66 48.4184 1421.91 54.1184C1405.7 46.9158 1406.55 29.3114 1406.55 29.3114C1385.21 37.721 1389.22 54.923 1389.22 54.923L1373.99 38.5064L1358.72 54.5207C1356.67 38.5064 1373.99 13.2972 1373.99 13.2972C1349.54 21.7067 1331.32 55.7276 1331.32 55.7276C1330.92 42.284 1322.54 29.1321 1307.05 17.6264C1318.01 40.4411 1307.05 52.452 1307.05 52.452L1302.78 42.0311L1289.34 50.4405L1285.07 36.3991C1277.67 41.1665 1270.85 46.1097 1264.63 51.2068C1254.82 35.9968 1276.45 9.98318 1276.45 9.98318C1240.82 21.1894 1239.8 55.2104 1239.8 55.2104C1239.8 47.548 1230.67 32.2233 1230.67 32.2233C1229.98 38.1943 1226.13 44.0058 1219.45 49.1763C1210.32 39.5982 1210.32 22.741 1210.32 22.741C1196.07 33.1618 1198.07 52.3753 1198.07 52.3753C1186.68 34.8285 1186.68 0.00292969 1186.68 0.00292969C1177.42 9.37017 1173.54 24.5034 1172 37.7785L1155.96 52.0688C1159.03 36.0543 1134.62 12.8374 1134.62 12.8374C1144.82 31.2463 1134.62 52.4711 1134.62 52.4711C1126.47 44.4639 1121.4 29.254 1121.4 29.254C1110.22 39.2533 1107.83 55.6702 1107.83 55.6702L1095.03 40.8625L1089.82 54.8656C1076.59 45.1344 1082.27 10.4238 1082.27 10.4238C1064.48 23.6413 1057.26 50.4596 1057.26 50.4596C1053.13 36.3991 1029.06 23.2199 1029.06 23.2199C1040.71 41.648 1035.8 54.4441 1035.8 54.4441L1022.57 40.8434L1011.35 54.8464L1000.17 40.8434L984.899 57.6431C986.946 25.2314 958.742 9.21694 958.742 9.21694C975.384 29.2348 954.475 52.452 954.475 52.452C956.524 42.8738 942.784 32.2999 942.784 32.2999C941.75 39.0484 936.253 45.505 926.996 50.8428C915.818 34.4262 926.996 16.8218 926.996 16.8218C899.519 27.2235 894.441 50.8428 894.441 50.8428C889.32 34.0239 903.572 8.41238 903.572 8.41238C879.165 17.9904 863.763 56.4554 863.763 56.4554L853.735 39.6365L840.253 51.724C842.173 27.9898 816.87 15.6916 816.87 15.6916C821.497 22.0397 822.999 28.763 821.275 35.3972C819.551 42.0316 814.643 48.4189 806.885 54.1184C790.67 46.9158 791.524 29.3114 791.524 29.3114C770.19 37.721 774.244 54.923 774.244 54.923L758.969 38.5064L743.693 54.5207C741.646 38.5064 758.969 13.2972 758.969 13.2972C734.519 21.7067 716.3 55.7276 716.3 55.7276C715.882 42.2823 707.486 29.1302 691.979 17.6264C702.987 40.4411 691.979 52.452 691.979 52.452L687.712 42.0311L674.485 50.4405L669.834 36.3991C662.401 41.1781 655.55 46.134 649.31 51.2451C639.54 36.0352 661.13 10.0215 661.13 10.0215C625.501 21.2277 624.52 55.2487 624.52 55.2487C624.52 47.5863 615.346 32.2616 615.346 32.2616C614.659 38.2326 610.813 44.0441 604.125 49.2146C594.993 39.6365 594.994 22.7793 594.994 22.7793C580.742 33.2001 582.748 52.4137 582.748 52.4137C571.654 34.8285 571.654 0.00292969 571.654 0.00292969C562.053 9.75329 558.213 25.7484 556.805 39.3874L540.932 52.0688C544.004 36.0543 519.599 12.8374 519.599 12.8374C529.796 31.2463 519.599 52.4711 519.599 52.4711C511.448 44.4639 506.371 29.254 506.371 29.254C495.192 39.2533 492.802 55.6702 492.802 55.6702L480.001 40.8625L474.839 54.8656C461.569 45.1344 467.244 10.4238 467.244 10.4238C449.493 23.6413 442.239 50.4596 442.239 50.4596C438.186 36.3225 414.164 23.239 414.164 23.239C425.77 41.6671 420.863 54.4633 420.863 54.4633L407.635 40.8625L396.457 54.8656L385.234 40.8625L369.959 57.6623C371.965 25.2314 343.804 9.21694 343.804 9.21694C360.401 29.2348 339.536 52.452 339.536 52.452C341.542 42.8738 327.803 32.2999 327.803 32.2999C326.769 39.0484 321.271 45.505 312.016 50.8428C300.836 34.4262 312.016 16.8218 312.016 16.8218C284.536 27.2235 279.459 50.8428 279.459 50.8428C274.254 34.0239 288.505 8.41238 288.505 8.41238C264.057 17.9904 248.653 56.4554 248.653 56.4554L238.625 39.6365L225.27 51.724C227.147 27.9898 201.846 15.6916 201.846 15.6916C206.484 22.039 207.993 28.763 206.269 35.3982C204.545 42.0333 199.628 48.4208 191.861 54.1184C175.646 46.9158 176.5 29.3114 176.5 29.3114C155.167 37.721 159.433 54.923 159.433 54.923L144.157 38.5064L128.753 54.4441C126.62 38.4298 143.944 13.2205 143.944 13.2205C119.495 21.6301 101.276 55.651 101.276 55.651C100.839 42.2335 92.4606 29.1097 76.9972 17.6264C88.0057 40.4411 76.9972 52.452 76.9972 52.452L72.7303 42.0311L59.5032 50.4405L54.8096 36.3991C47.409 41.1665 40.5863 46.1097 34.3713 51.2068C24.6002 35.9968 46.2332 9.98318 46.2332 9.98318C10.6049 21.1894 9.58095 55.2104 9.58095 55.2104C9.58095 47.548 0.407246 32.2233 0.407246 32.2233C-0.27483 38.1919 -4.10647 44.0026 -10.7721 49.1763C-19.9458 39.5982 -19.9457 22.741 -19.9457 22.741C-34.197 33.2384 -32.1489 52.452 -32.1489 52.452C-43.3707 34.8285 -43.3707 0.00292969 -43.3707 0.00292969C-62.6996 19.6186 -58.6461 64.5776 -58.6461 64.5776H1764.48C1776.36 64.5776 1786 54.9406 1786 43.0527V38.8321L1770.98 52.0497Z" fill="#FDC238"/>
</svg>
