<svg width="33" height="35" viewBox="0 0 33 35" fill="none" xmlns="http://www.w3.org/2000/svg">
<path d="M31.8584 25.0953C32.9756 26.6336 31.518 28.7162 29.6901 28.1934L21.7326 25.9174C20.9255 25.6866 20.0602 25.9842 19.566 26.6627L14.6823 33.3672C13.5637 34.9029 11.1352 34.1601 11.067 32.2615L10.7692 23.9766C10.7391 23.1376 10.1882 22.4068 9.39005 22.1468L1.51054 19.5798C-0.296717 18.991 -0.340809 16.4503 1.44493 15.7991L9.23096 12.9601C10.0198 12.6725 10.545 11.9228 10.5458 11.0832L10.5543 2.79137C10.5563 0.891079 12.9583 0.0643335 14.1294 1.56087L19.2409 8.09272C19.7586 8.7543 20.6346 9.02183 21.4336 8.76239L29.3045 6.20668C31.1129 5.61948 32.6432 7.64945 31.5809 9.22634L26.9503 16.1001C26.4809 16.7969 26.497 17.7129 26.9908 18.3927L31.8584 25.0953Z" fill="#303030"/>
</svg>
