<svg width="277" height="42" viewBox="0 0 277 42" fill="none" xmlns="http://www.w3.org/2000/svg">
<g filter="url(#filter0_b_97_516)">
<path d="M0.548828 8.34569C0.548828 3.92742 4.13055 0.345703 8.54883 0.345703H28.0095C32.4277 0.345703 36.0095 3.92742 36.0095 8.3457V33.6477C36.0095 38.066 32.4277 41.6477 28.0095 41.6477H8.54882C4.13055 41.6477 0.548828 38.0659 0.548828 33.6477V8.34569Z" fill="#DEE7FF" fill-opacity="0.3"/>
<path d="M8.54883 0.845703H28.0095C32.1516 0.845703 35.5095 4.20357 35.5095 8.3457V33.6477C35.5095 37.7898 32.1516 41.1477 28.0095 41.1477H8.54882C4.40669 41.1477 1.04883 37.7898 1.04883 33.6477V8.34569C1.04883 4.20356 4.40669 0.845703 8.54883 0.845703Z" stroke="white"/>
<path d="M19.5322 35.6477H18.3563C18.035 35.6477 17.7587 35.532 17.5273 35.3007C17.296 35.0693 17.1803 34.793 17.1803 34.4717V33.6235C15.5867 33.4307 14.2437 32.8845 13.1513 31.9849C11.6348 30.6483 10.7673 29.0162 10.5488 27.0884V27.0306C10.5488 26.6707 10.6773 26.3623 10.9344 26.1053C11.1914 25.8482 11.5256 25.7197 11.9368 25.7197L13.826 25.7583C14.173 25.7711 14.4686 25.8803 14.7128 26.086C14.957 26.2916 15.1048 26.5551 15.1562 26.8764C15.1562 26.9149 15.1883 27.0691 15.2526 27.339C15.4325 28.1101 15.7923 28.7334 16.3321 29.2089C16.7562 29.5816 17.2896 29.768 17.9322 29.768C18.4591 29.768 18.8896 29.6009 19.2238 29.2668C19.5193 28.9969 19.6671 28.682 19.6671 28.3222C19.6671 27.4483 19.076 26.4651 17.8936 25.3727C17.2639 24.8329 16.4413 24.0425 15.4261 23.0016C12.8172 20.3669 11.4227 17.7388 11.2428 15.117C11.2428 13.562 11.7954 12.1997 12.9007 11.0302C14.0059 9.86065 15.4325 9.1024 17.1803 8.7554V7.52164C17.1803 7.20034 17.296 6.92403 17.5273 6.6927C17.7587 6.46137 18.035 6.3457 18.3563 6.3457H19.5322C19.8663 6.3457 20.1491 6.46137 20.3804 6.6927C20.6117 6.92403 20.7274 7.20034 20.7274 7.52164V8.79396C21.7812 9.03814 22.6423 9.43655 23.3106 9.98917C23.9917 10.5289 24.5572 11.1394 25.007 11.8205C25.6753 12.7973 26.0095 14.0053 26.0095 15.4447C25.9966 15.8046 25.8617 16.1002 25.6046 16.3315C25.3476 16.5628 25.0327 16.6849 24.66 16.6978H22.5973C22.1861 16.6849 21.8584 16.5564 21.6142 16.3122C21.37 16.0552 21.2479 15.7532 21.2479 15.4062V15.1556C21.2479 14.2431 20.933 13.5684 20.3033 13.1314C19.9177 12.8872 19.4936 12.7651 19.031 12.7651L18.7996 12.7844L18.2791 12.9001C17.508 13.3885 17.1225 14.0375 17.1225 14.8471C17.1225 15.1299 17.1739 15.4126 17.2767 15.6953C17.6109 16.5564 18.0928 17.3404 18.7225 18.0472C19.3523 18.7541 20.0977 19.4866 20.9587 20.2449C21.9355 21.1188 22.9636 22.1469 24.0432 23.3293C25.1484 24.6402 25.701 25.9896 25.701 27.3776C25.701 28.4443 25.3797 29.5302 24.7371 30.6355C23.9146 31.9592 22.5781 32.8717 20.7274 33.3729V34.4717C20.7274 34.793 20.6117 35.0693 20.3804 35.3007C20.1491 35.532 19.8663 35.6477 19.5322 35.6477Z" fill="black"/>
</g>
<g filter="url(#filter1_b_97_516)">
<path d="M40.0095 8.47901C40.0095 4.06073 43.5912 0.479004 48.0095 0.479004H66.7383C71.1566 0.479004 74.7383 4.06073 74.7383 8.479V33.5144C74.7383 37.9327 71.1566 41.5144 66.7383 41.5144H48.0095C43.5912 41.5144 40.0095 37.9327 40.0095 33.5144V8.47901Z" fill="#DEE7FF" fill-opacity="0.3"/>
<path d="M48.0095 0.979004H66.7383C70.8804 0.979004 74.2383 4.33687 74.2383 8.479V33.5144C74.2383 37.6566 70.8804 41.0144 66.7383 41.0144H48.0095C43.8674 41.0144 40.5095 37.6566 40.5095 33.5144V8.47901C40.5095 4.33687 43.8674 0.979004 48.0095 0.979004Z" stroke="white"/>
<path d="M57.5286 35.5144C55.6308 35.5144 54.1249 35.131 53.011 34.3642C51.9177 33.5741 51.1441 32.4819 50.6903 31.0877C50.2364 29.6702 50.0095 28.0087 50.0095 26.1032V15.9251C50.0095 13.9731 50.2364 12.3 50.6903 10.9058C51.1441 9.48828 51.9177 8.39611 53.011 7.62927C54.1249 6.86242 55.6308 6.479 57.5286 6.479C59.3852 6.479 60.8292 6.82757 61.8606 7.5247C62.9127 8.19859 63.6553 9.15133 64.0885 10.3829C64.5217 11.6145 64.7383 13.032 64.7383 14.6354V17.0754H59.3233V14.252C59.3233 13.6943 59.2924 13.1598 59.2305 12.6486C59.1892 12.1374 59.0448 11.7191 58.7973 11.3938C58.5497 11.0452 58.1268 10.8709 57.5286 10.8709C56.951 10.8709 56.5178 11.0452 56.229 11.3938C55.9608 11.7423 55.7855 12.1838 55.703 12.7183C55.6411 13.2295 55.6102 13.7756 55.6102 14.3566V27.6369C55.6102 28.2643 55.6514 28.8452 55.7339 29.3797C55.8371 29.8909 56.0227 30.3092 56.2909 30.6345C56.5797 30.9366 56.9923 31.0877 57.5286 31.0877C58.1062 31.0877 58.5188 30.925 58.7663 30.5997C59.0139 30.2511 59.1686 29.8096 59.2305 29.2751C59.2924 28.7407 59.3233 28.1946 59.3233 27.6369V24.6741H64.7383V27.114C64.7383 28.7174 64.5217 30.1581 64.0885 31.4362C63.6759 32.691 62.9436 33.6903 61.8915 34.4339C60.8601 35.1542 59.4058 35.5144 57.5286 35.5144Z" fill="black"/>
</g>
<g filter="url(#filter2_b_97_516)">
<path d="M78.7383 8.69335C78.7383 4.27507 82.32 0.693359 86.7383 0.693359H108.679C113.098 0.693359 116.679 4.27508 116.679 8.69336V33.3C116.679 37.7183 113.098 41.3 108.679 41.3H86.7383C82.32 41.3 78.7383 37.7183 78.7383 33.3V8.69335Z" fill="#DEE7FF" fill-opacity="0.3"/>
<path d="M86.7383 1.19336H108.679C112.821 1.19336 116.179 4.55122 116.179 8.69336V33.3C116.179 37.4421 112.821 40.8 108.679 40.8H86.7383C82.5962 40.8 79.2383 37.4421 79.2383 33.3V8.69335C79.2383 4.55122 82.5961 1.19336 86.7383 1.19336Z" stroke="white"/>
<path d="M88.7383 35.3L94.1418 6.69336H101.346L106.679 35.3H100.852L99.8984 29.2608H95.6957L94.7068 35.3H88.7383ZM96.2608 25.4819H99.298L97.7794 14.3218L96.2608 25.4819Z" fill="black"/>
</g>
<g filter="url(#filter3_b_97_516)">
<path d="M120.679 8.2871C120.679 3.86883 124.261 0.287109 128.679 0.287109H148.395C152.813 0.287109 156.395 3.86883 156.395 8.28711V33.706C156.395 38.1243 152.813 41.706 148.395 41.706H128.679C124.261 41.706 120.679 38.1243 120.679 33.706V8.2871Z" fill="#DEE7FF" fill-opacity="0.3"/>
<path d="M128.679 0.787109H148.395C152.537 0.787109 155.895 4.14497 155.895 8.28711V33.706C155.895 37.8482 152.537 41.206 148.395 41.206H128.679C124.537 41.206 121.179 37.8482 121.179 33.706V8.2871C121.179 4.14497 124.537 0.787109 128.679 0.787109Z" stroke="white"/>
<path d="M138.908 35.706C137.119 35.706 135.624 35.3882 134.423 34.7525C133.222 34.1168 132.316 33.1397 131.703 31.8212C131.091 30.4791 130.75 28.7486 130.679 26.6296L136.083 25.8173C136.106 27.0416 136.212 28.0305 136.401 28.7839C136.612 29.5374 136.895 30.0789 137.248 30.4085C137.625 30.7381 138.072 30.9029 138.59 30.9029C139.249 30.9029 139.673 30.6793 139.862 30.2319C140.073 29.7846 140.179 29.3137 140.179 28.8192C140.179 27.642 139.897 26.6531 139.332 25.8526C138.767 25.0286 138.002 24.2045 137.036 23.3805L134.564 21.2261C133.481 20.3079 132.563 19.2719 131.809 18.1182C131.079 16.941 130.715 15.493 130.715 13.7743C130.715 11.3492 131.433 9.50094 132.869 8.22953C134.305 6.93458 136.259 6.28711 138.731 6.28711C140.262 6.28711 141.486 6.5461 142.404 7.06408C143.346 7.58206 144.053 8.26485 144.523 9.11245C145.018 9.93651 145.347 10.8194 145.512 11.7612C145.701 12.6795 145.807 13.5624 145.83 14.41L140.391 15.081C140.368 14.2334 140.309 13.5035 140.215 12.8914C140.144 12.2557 139.979 11.773 139.72 11.4434C139.461 11.0902 139.061 10.9136 138.52 10.9136C137.931 10.9136 137.495 11.1608 137.213 11.6553C136.954 12.1497 136.824 12.6441 136.824 13.1386C136.824 14.1981 137.072 15.0692 137.566 15.752C138.084 16.4113 138.755 17.1058 139.579 17.8357L141.945 19.9194C143.193 20.9789 144.241 22.1797 145.088 23.5217C145.96 24.8638 146.395 26.5236 146.395 28.5014C146.395 29.8434 146.089 31.0677 145.477 32.1743C144.865 33.2574 143.994 34.1168 142.864 34.7525C141.757 35.3882 140.438 35.706 138.908 35.706Z" fill="black"/>
</g>
<g filter="url(#filter4_b_97_516)">
<path d="M160.395 8.69335C160.395 4.27507 163.977 0.693359 168.395 0.693359H189.524C193.942 0.693359 197.524 4.27508 197.524 8.69336V33.3C197.524 37.7183 193.942 41.3 189.524 41.3H168.395C163.977 41.3 160.395 37.7183 160.395 33.3V8.69335Z" fill="#DEE7FF" fill-opacity="0.3"/>
<path d="M168.395 1.19336H189.524C193.666 1.19336 197.024 4.55122 197.024 8.69336V33.3C197.024 37.4421 193.666 40.8 189.524 40.8H168.395C164.253 40.8 160.895 37.4421 160.895 33.3V8.69335C160.895 4.55122 164.253 1.19336 168.395 1.19336Z" stroke="white"/>
<path d="M170.395 35.3V6.69336H180.001C181.72 6.69336 183.133 7.02298 184.239 7.68223C185.346 8.31793 186.17 9.25972 186.712 10.5076C187.253 11.7319 187.524 13.227 187.524 14.9928C187.524 17.206 187.159 18.9012 186.429 20.0784C185.699 21.2321 184.71 22.0326 183.462 22.48C182.215 22.9273 180.814 23.151 179.26 23.151H176.717V35.3H170.395ZM176.717 18.7364H178.836C179.613 18.7364 180.202 18.5951 180.602 18.3126C181.002 18.0301 181.261 17.6063 181.379 17.0412C181.52 16.4761 181.591 15.758 181.591 14.8869C181.591 14.157 181.532 13.5213 181.414 12.9798C181.32 12.4147 181.073 11.9673 180.672 11.6377C180.272 11.3081 179.648 11.1433 178.801 11.1433H176.717V18.7364Z" fill="black"/>
</g>
<g filter="url(#filter5_b_97_516)">
<path d="M201.524 8.69335C201.524 4.27507 205.106 0.693359 209.524 0.693359H226.45C230.868 0.693359 234.45 4.27508 234.45 8.69336V33.3C234.45 37.7183 230.868 41.3 226.45 41.3H209.524C205.106 41.3 201.524 37.7183 201.524 33.3V8.69335Z" fill="#DEE7FF" fill-opacity="0.3"/>
<path d="M209.524 1.19336H226.45C230.592 1.19336 233.95 4.55122 233.95 8.69336V33.3C233.95 37.4421 230.592 40.8 226.45 40.8H209.524C205.382 40.8 202.024 37.4421 202.024 33.3V8.69335C202.024 4.55122 205.382 1.19336 209.524 1.19336Z" stroke="white"/>
<path d="M211.524 35.3V6.69336H224.379V11.002H217.846V18.1007H222.825V22.48H217.846V31.0267H224.45V35.3H211.524Z" fill="black"/>
</g>
<g filter="url(#filter6_b_97_516)">
<path d="M238.45 8.69335C238.45 4.27507 242.031 0.693359 246.45 0.693359H268.249C272.668 0.693359 276.249 4.27508 276.249 8.69336V33.3C276.249 37.7183 272.668 41.3 268.249 41.3H246.45C242.031 41.3 238.45 37.7183 238.45 33.3V8.69335Z" fill="#DEE7FF" fill-opacity="0.3"/>
<path d="M246.45 1.19336H268.249C272.392 1.19336 275.749 4.55122 275.749 8.69336V33.3C275.749 37.4421 272.392 40.8 268.249 40.8H246.45C242.308 40.8 238.95 37.4421 238.95 33.3V8.69335C238.95 4.55122 242.308 1.19336 246.45 1.19336Z" stroke="white"/>
<path d="M248.45 35.3V6.69336H256.325C258.256 6.69336 259.928 6.90526 261.34 7.32906C262.753 7.75286 263.848 8.51806 264.625 9.62466C265.425 10.7077 265.826 12.2499 265.826 14.2512C265.826 15.4284 265.731 16.4761 265.543 17.3944C265.355 18.3126 265.002 19.1131 264.484 19.7959C263.989 20.4551 263.271 21.0084 262.329 21.4558L266.249 35.3H259.716L256.573 22.48H254.771V35.3H248.45ZM254.771 18.8423H256.537C257.432 18.8423 258.127 18.6893 258.621 18.3832C259.115 18.0536 259.457 17.5945 259.645 17.0059C259.857 16.3937 259.963 15.6638 259.963 14.8162C259.963 13.5919 259.739 12.6384 259.292 11.9556C258.845 11.2728 258.021 10.9314 256.82 10.9314H254.771V18.8423Z" fill="black"/>
</g>
<defs>
<filter id="filter0_b_97_516" x="-13.4512" y="-13.6543" width="63.4607" height="69.3018" filterUnits="userSpaceOnUse" color-interpolation-filters="sRGB">
<feFlood flood-opacity="0" result="BackgroundImageFix"/>
<feGaussianBlur in="BackgroundImageFix" stdDeviation="7"/>
<feComposite in2="SourceAlpha" operator="in" result="effect1_backgroundBlur_97_516"/>
<feBlend mode="normal" in="SourceGraphic" in2="effect1_backgroundBlur_97_516" result="shape"/>
</filter>
<filter id="filter1_b_97_516" x="26.0095" y="-13.521" width="62.7288" height="69.0356" filterUnits="userSpaceOnUse" color-interpolation-filters="sRGB">
<feFlood flood-opacity="0" result="BackgroundImageFix"/>
<feGaussianBlur in="BackgroundImageFix" stdDeviation="7"/>
<feComposite in2="SourceAlpha" operator="in" result="effect1_backgroundBlur_97_516"/>
<feBlend mode="normal" in="SourceGraphic" in2="effect1_backgroundBlur_97_516" result="shape"/>
</filter>
<filter id="filter2_b_97_516" x="64.7383" y="-13.3066" width="65.9409" height="68.6064" filterUnits="userSpaceOnUse" color-interpolation-filters="sRGB">
<feFlood flood-opacity="0" result="BackgroundImageFix"/>
<feGaussianBlur in="BackgroundImageFix" stdDeviation="7"/>
<feComposite in2="SourceAlpha" operator="in" result="effect1_backgroundBlur_97_516"/>
<feBlend mode="normal" in="SourceGraphic" in2="effect1_backgroundBlur_97_516" result="shape"/>
</filter>
<filter id="filter3_b_97_516" x="106.679" y="-13.7129" width="63.7161" height="69.4189" filterUnits="userSpaceOnUse" color-interpolation-filters="sRGB">
<feFlood flood-opacity="0" result="BackgroundImageFix"/>
<feGaussianBlur in="BackgroundImageFix" stdDeviation="7"/>
<feComposite in2="SourceAlpha" operator="in" result="effect1_backgroundBlur_97_516"/>
<feBlend mode="normal" in="SourceGraphic" in2="effect1_backgroundBlur_97_516" result="shape"/>
</filter>
<filter id="filter4_b_97_516" x="146.395" y="-13.3066" width="65.1287" height="68.6064" filterUnits="userSpaceOnUse" color-interpolation-filters="sRGB">
<feFlood flood-opacity="0" result="BackgroundImageFix"/>
<feGaussianBlur in="BackgroundImageFix" stdDeviation="7"/>
<feComposite in2="SourceAlpha" operator="in" result="effect1_backgroundBlur_97_516"/>
<feBlend mode="normal" in="SourceGraphic" in2="effect1_backgroundBlur_97_516" result="shape"/>
</filter>
<filter id="filter5_b_97_516" x="187.524" y="-13.3066" width="60.926" height="68.6064" filterUnits="userSpaceOnUse" color-interpolation-filters="sRGB">
<feFlood flood-opacity="0" result="BackgroundImageFix"/>
<feGaussianBlur in="BackgroundImageFix" stdDeviation="7"/>
<feComposite in2="SourceAlpha" operator="in" result="effect1_backgroundBlur_97_516"/>
<feBlend mode="normal" in="SourceGraphic" in2="effect1_backgroundBlur_97_516" result="shape"/>
</filter>
<filter id="filter6_b_97_516" x="224.45" y="-13.3066" width="65.7996" height="68.6064" filterUnits="userSpaceOnUse" color-interpolation-filters="sRGB">
<feFlood flood-opacity="0" result="BackgroundImageFix"/>
<feGaussianBlur in="BackgroundImageFix" stdDeviation="7"/>
<feComposite in2="SourceAlpha" operator="in" result="effect1_backgroundBlur_97_516"/>
<feBlend mode="normal" in="SourceGraphic" in2="effect1_backgroundBlur_97_516" result="shape"/>
</filter>
</defs>
</svg>
