<svg width="29" height="31" viewBox="0 0 29 31" fill="none" xmlns="http://www.w3.org/2000/svg">
<path d="M25.1768 24.4344L20.6794 23.1481C19.0653 22.6864 17.3347 23.2818 16.3463 24.6388L13.5777 28.4395C12.4591 29.9752 10.0306 29.2324 9.9624 27.3338L9.7937 22.6391C9.73341 20.9612 8.6317 19.4995 7.03531 18.9795L2.57557 17.5266C0.768317 16.9378 0.724219 14.3971 2.50996 13.7459L6.91681 12.1391C8.49445 11.5638 9.54482 10.0644 9.54655 8.38521L9.55136 3.68808C9.55331 1.7878 11.9553 0.961044 13.1264 2.45758L16.0223 6.15814C17.0577 7.48131 18.8097 8.01637 20.4077 7.49749L24.8546 6.05358C26.663 5.46639 28.1933 7.49635 27.131 9.07324L24.5118 12.9611C23.5729 14.3548 23.6053 16.1867 24.5927 17.5464L27.3451 21.3363C28.4623 22.8747 27.0047 24.9573 25.1768 24.4344Z" fill="#303030" stroke="white" stroke-width="2"/>
</svg>
