<svg width="251" height="46" viewBox="0 0 251 46" fill="none" xmlns="http://www.w3.org/2000/svg">
<path d="M8 0.5H33C37.1421 0.5 40.5 3.85786 40.5 8V38C40.5 42.1421 37.1421 45.5 33 45.5H8C3.85786 45.5 0.5 42.1421 0.5 38V8C0.5 3.85787 3.85786 0.5 8 0.5Z" fill="#FFEECB"/>
<path d="M8 0.5H33C37.1421 0.5 40.5 3.85786 40.5 8V38C40.5 42.1421 37.1421 45.5 33 45.5H8C3.85786 45.5 0.5 42.1421 0.5 38V8C0.5 3.85787 3.85786 0.5 8 0.5Z" stroke="#B19D77"/>
<path d="M22.3994 36.949C22.1536 37.2618 21.7962 37.4741 21.327 37.5858C20.8802 37.7198 20.4669 37.7533 20.0871 37.6863C19.7296 37.5969 19.3833 37.4405 19.0482 37.2171C18.7354 36.9937 18.512 36.7256 18.378 36.4129C18.2663 36.1224 18.2327 35.8208 18.2774 35.508C18.3221 35.1953 18.3668 34.8825 18.4115 34.5697C17.6519 34.5027 16.8923 34.3686 16.1327 34.1676C15.3954 33.9888 14.7028 33.7096 14.0549 33.3298C13.3177 32.95 12.748 32.3691 12.3458 31.5871C12.1671 31.2073 12.0442 30.8052 11.9772 30.3807C11.9325 29.9562 11.9325 29.5318 11.9772 29.1073C11.9995 28.8168 12.0666 28.4817 12.1783 28.1019C12.29 27.7221 12.424 27.3647 12.5804 27.0295C12.7591 26.6721 12.9602 26.3593 13.1836 26.0912C13.407 25.8231 13.664 25.6444 13.9544 25.555C14.2448 25.4656 14.5688 25.4545 14.9262 25.5215C15.5741 25.6109 16.222 25.7673 16.8699 25.9907C17.5178 26.2141 18.1657 26.404 18.8136 26.5604C19.0817 26.6274 19.4168 26.6832 19.819 26.7279C20.2211 26.7503 20.6233 26.7503 21.0254 26.7279C21.4275 26.7056 21.8073 26.6497 22.1648 26.5604C22.5223 26.471 22.7904 26.3258 22.9691 26.1247C23.1478 25.946 23.2595 25.7226 23.3042 25.4545C23.3489 25.1864 23.3489 24.9295 23.3042 24.6837C23.1925 24.1922 22.9467 23.7454 22.5669 23.3432C22.2095 22.9411 21.8073 22.6507 21.3605 22.4719C20.9137 22.3155 20.4669 22.215 20.02 22.1703C19.5732 22.1033 19.1152 22.0586 18.6461 22.0363C18.1769 22.0139 17.7077 22.0028 17.2386 22.0028C16.7917 21.9804 16.3337 21.9469 15.8646 21.9022C15.4401 21.8575 15.0156 21.7682 14.5911 21.6341C14.1666 21.4777 13.798 21.2543 13.4852 20.9639C13.2842 20.7852 13.0831 20.5953 12.882 20.3942C12.7033 20.1931 12.5469 19.9697 12.4129 19.724C12.2118 19.4112 12.0331 19.0649 11.8767 18.6851C11.7426 18.3053 11.6533 17.9255 11.6086 17.5457C11.4969 16.7637 11.5192 15.9595 11.6756 15.1328C11.832 14.3062 12.1112 13.5466 12.5134 12.854C13.1166 11.804 13.9209 10.9885 14.9262 10.4077C15.4401 10.0949 15.9986 9.8603 16.6018 9.70391C17.205 9.54752 17.7971 9.43581 18.378 9.36879C18.3109 9.12304 18.2551 8.88845 18.2104 8.66504C18.1657 8.41929 18.1657 8.17353 18.2104 7.92778C18.2551 7.615 18.3668 7.32457 18.5455 7.05647C18.7466 6.76604 18.9812 6.5538 19.2493 6.41975C19.6514 6.21868 20.1094 6.15165 20.6233 6.21868C21.1594 6.26336 21.5839 6.44209 21.8967 6.75487C22.1871 7.0453 22.3547 7.41393 22.3994 7.86076C22.4441 8.28524 22.4664 8.69855 22.4664 9.1007C22.9132 9.07835 23.3377 9.07835 23.7399 9.1007C24.1643 9.1007 24.5888 9.12304 25.0133 9.16772C25.3931 9.2124 25.7617 9.27943 26.1192 9.36879C26.499 9.43581 26.8453 9.58103 27.1581 9.80444C27.4708 10.0279 27.7278 10.3295 27.9288 10.7093C28.1299 11.0891 28.2751 11.5135 28.3645 11.9827C28.4762 12.4295 28.5209 12.8764 28.4985 13.3232C28.4985 13.77 28.4427 14.1722 28.331 14.5296C28.2193 14.8647 28.0629 15.1887 27.8618 15.5015C27.6831 15.8142 27.4485 16.06 27.1581 16.2387C26.8453 16.4174 26.499 16.5403 26.1192 16.6073C25.7394 16.652 25.3708 16.6744 25.0133 16.6744C24.4324 16.6297 23.8516 16.585 23.2707 16.5403C22.6898 16.4733 22.1089 16.451 21.5281 16.4733C21.327 16.4733 21.0924 16.4956 20.8243 16.5403C20.5786 16.5627 20.3328 16.6073 20.0871 16.6744C19.8637 16.7414 19.6626 16.8308 19.4839 16.9425C19.3051 17.0542 19.1822 17.1994 19.1152 17.3781C19.0482 17.6239 19.0259 17.8808 19.0482 18.1489C19.0705 18.3946 19.1599 18.6069 19.3163 18.7856C19.4727 18.9644 19.6626 19.0872 19.886 19.1543C20.1094 19.1989 20.3328 19.2324 20.5562 19.2548C21.0701 19.3218 21.5951 19.3777 22.1313 19.4223C22.6675 19.467 23.1925 19.5452 23.7063 19.6569C24.2202 19.7686 24.7117 19.9362 25.1809 20.1596C25.6724 20.383 26.108 20.6846 26.4878 21.0644C27.1357 21.7123 27.6496 22.4831 28.0294 23.3767C28.4315 24.2481 28.6884 25.1417 28.8001 26.0577C28.8672 26.7726 28.8337 27.4875 28.6996 28.2024C28.5656 28.9174 28.3757 29.6099 28.1299 30.2802C27.9288 30.8834 27.6272 31.4531 27.2251 31.9893C26.8229 32.5031 26.3538 32.9276 25.8176 33.2627C25.3037 33.5755 24.7564 33.7989 24.1755 33.933C23.617 34.067 23.0473 34.1899 22.4664 34.3016C22.5334 34.5474 22.5893 34.7708 22.634 34.9718C22.6786 35.1953 22.7122 35.4298 22.7345 35.6756C22.7568 35.899 22.7457 36.1224 22.701 36.3458C22.6563 36.5692 22.5558 36.7703 22.3994 36.949Z" fill="black"/>
<path d="M59 0.5H89C93.1421 0.5 96.5 3.85786 96.5 8V38C96.5 42.1421 93.1421 45.5 89 45.5H59C54.8579 45.5 51.5 42.1421 51.5 38V8C51.5 3.85787 54.8579 0.5 59 0.5Z" fill="#FFEECB"/>
<path d="M59 0.5H89C93.1421 0.5 96.5 3.85786 96.5 8V38C96.5 42.1421 93.1421 45.5 89 45.5H59C54.8579 45.5 51.5 42.1421 51.5 38V8C51.5 3.85787 54.8579 0.5 59 0.5Z" stroke="#B19D77"/>
<path d="M67.4343 34.067C67.0992 34.2234 66.7305 34.3239 66.3284 34.3686C65.9262 34.4133 65.5241 34.391 65.122 34.3016C64.7422 34.2346 64.3847 34.1117 64.0496 33.933C63.7368 33.7319 63.491 33.4638 63.3123 33.1287C63.1559 32.8829 63.0442 32.6148 62.9772 32.3244C62.9102 32.0116 62.8655 31.71 62.8432 31.4196C62.8208 31.1962 62.8096 30.8164 62.8096 30.2802C62.832 29.7217 62.8543 29.0961 62.8767 28.4035C62.9213 27.6886 62.966 26.9402 63.0107 26.1582C63.0554 25.3539 63.0889 24.6055 63.1112 23.9129C63.1559 23.198 63.1894 22.5725 63.2118 22.0363C63.2341 21.4777 63.2453 21.0756 63.2453 20.8298C63.2453 19.5564 63.1783 18.2829 63.0442 17.0095C62.9102 15.7137 62.8096 14.4291 62.7426 13.1556C62.7426 12.8875 62.7426 12.6306 62.7426 12.3849C62.765 12.1168 62.7985 11.8598 62.8432 11.6141C62.9102 11.2566 63.0107 10.9103 63.1448 10.5752C63.3011 10.2401 63.5134 9.96083 63.7815 9.73742C64.1166 9.44698 64.5411 9.24591 65.0549 9.13421C65.5688 9.00016 66.0938 8.94431 66.63 8.96665C67.1662 8.98899 67.6912 9.07835 68.205 9.23474C68.7189 9.36879 69.1657 9.55869 69.5455 9.80444C70.037 10.1172 70.4503 10.5194 70.7855 11.0109C71.1206 11.48 71.411 11.9715 71.6568 12.4854C71.9695 13.1333 72.2265 13.7924 72.4275 14.4626C72.651 15.1328 72.8855 15.8031 73.1313 16.4733C73.4441 17.3223 73.7568 18.1712 74.0696 19.0202C74.3824 19.8468 74.7063 20.6846 75.0415 21.5336C75.1085 21.7123 75.1979 21.9581 75.3096 22.2709C75.4436 22.5613 75.5888 22.8629 75.7452 23.1757C75.9016 23.4661 76.058 23.7342 76.2144 23.98C76.3931 24.2034 76.5718 24.3486 76.7506 24.4156C76.9293 24.4826 77.0745 24.438 77.1862 24.2816C77.2979 24.1252 77.3761 23.9576 77.4208 23.7789C77.5772 23.2204 77.6442 22.6618 77.6219 22.1033C77.5995 21.5224 77.566 20.9415 77.5213 20.3607C77.4767 19.6904 77.4208 19.0314 77.3538 18.3835C77.2868 17.7132 77.2309 17.043 77.1862 16.3728C77.1639 15.993 77.1415 15.4903 77.1192 14.8647C77.1192 14.2168 77.1415 13.5578 77.1862 12.8875C77.2309 12.2173 77.3203 11.5917 77.4543 11.0109C77.5884 10.43 77.7894 10.0055 78.0575 9.73742C78.2363 9.55869 78.4262 9.42464 78.6272 9.33528C78.8506 9.24591 79.0852 9.17889 79.331 9.13421C79.7108 9.04484 80.1129 9.00016 80.5374 9.00016C80.9842 9.00016 81.3864 9.10069 81.7438 9.30177C82.0119 9.30177 82.2689 9.39113 82.5146 9.56986C82.7827 9.74859 83.0173 9.972 83.2184 10.2401C83.4194 10.5082 83.5982 10.7986 83.7545 11.1114C83.9109 11.4018 84.0226 11.6811 84.0897 11.9492C84.4471 13.312 84.6482 14.6972 84.6929 16.1047C84.7376 17.5122 84.7487 18.9197 84.7264 20.3272C84.7264 21.7347 84.6817 23.131 84.5923 24.5161C84.503 25.879 84.3131 27.2418 84.0226 28.6046C83.9109 29.1184 83.7881 29.6323 83.654 30.1461C83.52 30.6376 83.3301 31.1292 83.0843 31.6207C82.9279 31.9334 82.7492 32.235 82.5481 32.5255C82.347 32.7936 82.1125 33.0282 81.8444 33.2292C81.4199 33.542 80.9507 33.7654 80.4369 33.8995C79.923 34.0112 79.4092 34.067 78.8953 34.067C78.4038 34.067 77.9123 34.0112 77.4208 33.8995C76.9516 33.7654 76.5048 33.5643 76.0803 33.2963C75.6558 33.0505 75.2872 32.7377 74.9744 32.3579C74.6617 31.9558 74.3824 31.5313 74.1366 31.0845C73.8015 30.5483 73.4999 30.0009 73.2318 29.4424C72.9637 28.8615 72.718 28.2806 72.4946 27.6998C72.3605 27.3647 72.1483 26.8173 71.8578 26.0577C71.5674 25.2757 71.2435 24.4715 70.886 23.6448C70.5509 22.7959 70.2046 22.0028 69.8471 21.2655C69.512 20.5282 69.2327 20.0256 69.0093 19.7575C68.8976 20.1596 68.8418 20.5506 68.8418 20.9304C68.8194 21.1091 68.8083 21.4331 68.8083 21.9022C68.8306 22.349 68.8529 22.8741 68.8753 23.4773C68.8976 24.0805 68.92 24.7172 68.9423 25.3875C68.9646 26.0577 68.9758 26.6944 68.9758 27.2976C68.9982 27.9008 69.0093 28.437 69.0093 28.9062C69.0317 29.3754 69.0428 29.6993 69.0428 29.878C69.0205 30.4142 68.987 30.9616 68.9423 31.5201C68.8976 32.0563 68.7524 32.5702 68.5067 33.0617C68.3949 33.2851 68.2386 33.4862 68.0375 33.6649C67.8588 33.8213 67.6577 33.9553 67.4343 34.067Z" fill="black"/>
<path d="M115 0.5H140C144.142 0.5 147.5 3.85786 147.5 8V38C147.5 42.1421 144.142 45.5 140 45.5H115C110.858 45.5 107.5 42.1421 107.5 38V8C107.5 3.85787 110.858 0.5 115 0.5Z" fill="#FFEECB"/>
<path d="M115 0.5H140C144.142 0.5 147.5 3.85786 147.5 8V38C147.5 42.1421 144.142 45.5 140 45.5H115C110.858 45.5 107.5 42.1421 107.5 38V8C107.5 3.85787 110.858 0.5 115 0.5Z" stroke="#B19D77"/>
<path d="M127.432 34.134C126.985 34.2011 126.527 34.2122 126.058 34.1676C125.611 34.1452 125.186 34.0447 124.784 33.866C124.561 33.7542 124.349 33.6202 124.147 33.4638C123.969 33.2851 123.823 33.084 123.712 32.8606C123.533 32.5255 123.421 32.1568 123.377 31.7547C123.354 31.3526 123.343 30.9616 123.343 30.5818C123.343 30.3807 123.354 30.0456 123.377 29.5764C123.421 29.0849 123.455 28.5264 123.477 27.9008C123.522 27.2753 123.555 26.6162 123.578 25.9236C123.622 25.2087 123.656 24.5385 123.678 23.9129C123.723 23.2874 123.745 22.74 123.745 22.2709C123.768 21.7793 123.779 21.4331 123.779 21.232C123.734 20.4947 123.701 19.7686 123.678 19.0537C123.656 18.3165 123.622 17.5792 123.578 16.8419C123.533 16.1494 123.466 15.4679 123.377 14.7977C123.287 14.1051 123.22 13.4126 123.176 12.72C123.109 12.2285 123.131 11.7146 123.243 11.1784C123.354 10.7539 123.589 10.3965 123.946 10.1061C124.304 9.79327 124.717 9.54752 125.186 9.36879C125.655 9.16772 126.147 9.03367 126.661 8.96665C127.197 8.87728 127.689 8.8326 128.135 8.8326C128.493 8.85494 128.839 8.89962 129.174 8.96665C129.532 9.01133 129.856 9.12304 130.146 9.30177C130.504 9.54752 130.783 9.93849 130.984 10.4747C131.185 11.0109 131.33 11.6029 131.42 12.2508C131.509 12.8987 131.554 13.5466 131.554 14.1945C131.576 14.8424 131.587 15.3786 131.587 15.8031C131.565 17.2329 131.542 18.6627 131.52 20.0926C131.52 21.5001 131.475 22.9187 131.386 24.3486C131.319 25.3763 131.23 26.3928 131.118 27.3982C131.029 28.4035 130.883 29.4089 130.682 30.4142C130.593 30.9281 130.459 31.4308 130.28 31.9223C130.124 32.4138 129.856 32.8494 129.476 33.2292C129.208 33.475 128.895 33.6761 128.537 33.8324C128.18 33.9888 127.811 34.0894 127.432 34.134Z" fill="black"/>
<path d="M166 0.5H191C195.142 0.5 198.5 3.85786 198.5 8V38C198.5 42.1421 195.142 45.5 191 45.5H166C161.858 45.5 158.5 42.1421 158.5 38V8C158.5 3.85787 161.858 0.5 166 0.5Z" fill="#FFEECB"/>
<path d="M166 0.5H191C195.142 0.5 198.5 3.85786 198.5 8V38C198.5 42.1421 195.142 45.5 191 45.5H166C161.858 45.5 158.5 42.1421 158.5 38V8C158.5 3.85787 161.858 0.5 166 0.5Z" stroke="#B19D77"/>
<path d="M174.437 34.4021C174.191 34.4468 173.856 34.4692 173.432 34.4692C173.029 34.4915 172.616 34.4915 172.192 34.4692C171.767 34.4468 171.365 34.391 170.985 34.3016C170.605 34.2122 170.315 34.0782 170.114 33.8995C169.891 33.7207 169.745 33.4862 169.678 33.1957C169.634 32.9053 169.611 32.6148 169.611 32.3244C169.589 32.168 169.578 31.8776 169.578 31.4531C169.578 31.0286 169.578 30.5483 169.578 30.0121C169.578 29.4759 169.578 28.9062 169.578 28.303C169.578 27.6774 169.567 27.0966 169.544 26.5604C169.544 26.0242 169.544 25.5438 169.544 25.1194C169.544 24.6949 169.544 24.4044 169.544 24.2481C169.477 23.1086 169.41 21.9804 169.343 20.8634C169.298 19.7463 169.276 18.6181 169.276 17.4787C169.276 16.7414 169.276 16.0041 169.276 15.2669C169.298 14.5296 169.365 13.8035 169.477 13.0886C169.5 12.6194 169.589 12.1279 169.745 11.6141C169.991 10.7428 170.505 10.0725 171.287 9.60337C171.577 9.42464 171.89 9.30177 172.225 9.23474C172.56 9.16772 172.884 9.11187 173.197 9.06718C174.135 8.93314 175.085 8.86611 176.046 8.86611C177.006 8.86611 177.956 8.94431 178.894 9.1007C179.654 9.2124 180.413 9.37996 181.173 9.60337C181.932 9.80444 182.636 10.1061 183.284 10.5082C183.664 10.7316 184.01 10.9885 184.323 11.279C184.636 11.5694 184.915 11.9045 185.161 12.2843C186.054 13.7142 186.401 15.2445 186.2 16.8754C186.088 17.568 185.864 18.2383 185.529 18.8862C185.217 19.5117 184.826 20.0814 184.356 20.5953C183.731 21.2432 183.027 21.8129 182.245 22.3044C181.486 22.7735 180.681 23.1868 179.832 23.5443C180.592 24.2816 181.407 24.9518 182.279 25.555C183.15 26.1359 184.055 26.6609 184.993 27.1301C185.351 27.3088 185.708 27.4875 186.066 27.6663C186.423 27.8226 186.758 28.0237 187.071 28.2695C187.25 28.4035 187.417 28.5599 187.574 28.7386C187.752 28.895 187.898 29.0738 188.009 29.2748C188.21 29.6993 188.255 30.1573 188.143 30.6488C188.099 30.9169 187.976 31.2185 187.775 31.5536C187.596 31.8888 187.384 32.2127 187.138 32.5255C186.892 32.8159 186.624 33.084 186.334 33.3298C186.043 33.5532 185.764 33.6984 185.496 33.7654C184.826 33.9665 184.144 33.9553 183.452 33.7319C183.049 33.6202 182.67 33.4526 182.312 33.2292C181.955 33.0058 181.62 32.7601 181.307 32.492C180.235 31.576 179.285 30.5483 178.458 29.4089C177.632 28.2695 176.772 27.1412 175.878 26.0242C176.101 26.9625 176.291 27.8897 176.448 28.8057C176.604 29.7217 176.738 30.6488 176.85 31.5871C176.872 31.8999 176.861 32.235 176.816 32.5925C176.794 32.95 176.682 33.2516 176.481 33.4973C176.235 33.7878 175.923 33.9888 175.543 34.1005C175.185 34.2346 174.817 34.3351 174.437 34.4021ZM175.777 20.0926C175.956 20.1819 176.135 20.2155 176.314 20.1931C176.492 20.1484 176.671 20.1038 176.85 20.0591C177.364 19.9474 177.844 19.7575 178.291 19.4894C178.738 19.1989 179.117 18.8526 179.43 18.4505C179.743 18.0484 179.888 17.635 179.866 17.2106C179.844 16.7861 179.698 16.3951 179.43 16.0376C179.184 15.6578 178.838 15.3339 178.391 15.0658C177.967 14.7754 177.509 14.5631 177.017 14.4291C176.839 14.3844 176.649 14.3509 176.448 14.3285C176.247 14.3062 176.057 14.3285 175.878 14.3956C175.699 14.4626 175.554 14.5855 175.442 14.7642C175.308 14.9653 175.208 15.2669 175.141 15.669C175.096 16.0712 175.074 16.4956 175.074 16.9425C175.074 17.367 175.085 17.7803 175.107 18.1824C175.152 18.5845 175.208 18.9085 175.275 19.1543C175.319 19.333 175.375 19.5117 175.442 19.6904C175.509 19.8692 175.621 20.0032 175.777 20.0926Z" fill="black"/>
<path d="M217 0.5H243C247.142 0.5 250.5 3.85786 250.5 8V38C250.5 42.1421 247.142 45.5 243 45.5H217C212.858 45.5 209.5 42.1421 209.5 38V8C209.5 3.85787 212.858 0.5 217 0.5Z" fill="#FFEECB"/>
<path d="M217 0.5H243C247.142 0.5 250.5 3.85786 250.5 8V38C250.5 42.1421 247.142 45.5 243 45.5H217C212.858 45.5 209.5 42.1421 209.5 38V8C209.5 3.85787 212.858 0.5 217 0.5Z" stroke="#B19D77"/>
<path d="M233.209 33.0282C232.226 33.4303 231.187 33.6649 230.092 33.7319C229.02 33.7989 227.97 33.6761 226.942 33.3633C225.959 33.0728 225.077 32.626 224.295 32.0228C223.87 31.71 223.479 31.3414 223.122 30.9169C222.764 30.4924 222.441 30.0568 222.15 29.6099C221.502 28.5376 221.033 27.3758 220.743 26.1247C220.452 24.8513 220.262 23.589 220.173 22.3379C220.106 21.1091 220.128 19.8803 220.24 18.6516C220.374 17.4005 220.664 16.2052 221.111 15.0658C221.379 14.3732 221.714 13.7142 222.117 13.0886C222.541 12.4631 223.033 11.9157 223.591 11.4465C224.038 11.0667 224.518 10.7539 225.032 10.5082C225.546 10.2624 226.082 10.0725 226.641 9.93849C227.445 9.71508 228.26 9.5922 229.087 9.56986C229.936 9.52518 230.763 9.55869 231.567 9.6704C232.081 9.73742 232.595 9.83796 233.108 9.972C233.622 10.0837 234.114 10.2513 234.583 10.4747C235.276 10.8098 235.879 11.279 236.393 11.8822C236.929 12.4854 237.376 13.1333 237.733 13.8259C238.158 14.6748 238.482 15.5685 238.705 16.5068C238.951 17.4451 239.118 18.3946 239.208 19.3553C239.342 20.8298 239.308 22.3379 239.107 23.8794C238.928 25.3986 238.537 26.8396 237.934 28.2024C237.688 28.7833 237.387 29.353 237.029 29.9116C236.672 30.4477 236.259 30.9393 235.789 31.3861C235.03 32.1233 234.17 32.6707 233.209 33.0282ZM228.819 26.6274C229.199 26.9849 229.646 27.1636 230.159 27.1636C230.673 27.1636 231.12 26.996 231.5 26.6609C231.835 26.3705 232.103 25.9348 232.304 25.3539C232.505 24.7731 232.65 24.1475 232.74 23.4773C232.829 22.7847 232.874 22.1145 232.874 21.4666C232.896 20.7963 232.885 20.2378 232.84 19.791C232.796 19.2101 232.673 18.6404 232.472 18.0819C232.271 17.501 231.98 16.9983 231.6 16.5738C231.399 16.3504 231.165 16.1605 230.897 16.0041C230.629 15.8477 230.349 15.7807 230.059 15.8031C229.724 15.8254 229.422 15.9595 229.154 16.2052C228.886 16.4286 228.651 16.7191 228.45 17.0765C228.249 17.4116 228.082 17.7691 227.948 18.1489C227.836 18.5287 227.747 18.8862 227.68 19.2213C227.501 20.0032 227.411 20.7963 227.411 21.6006C227.411 22.4049 227.478 23.198 227.613 23.98C227.702 24.4491 227.836 24.9295 228.015 25.421C228.193 25.9125 228.462 26.3146 228.819 26.6274Z" fill="black"/>
</svg>
