<svg width="36" height="43" viewBox="0 0 36 43" fill="none" xmlns="http://www.w3.org/2000/svg">
<g clip-path="url(#clip0_2_1472)">
<g clip-path="url(#clip1_2_1472)">
<g clip-path="url(#clip2_2_1472)">
<path d="M1.41672 16.1266L11.2353 15.44L3.75095 9.27686L7.33301 5.11234L14.4608 11.4227L13.7855 1.76638L19.5469 1.36351L20.2221 11.0198L26.4022 3.77889L30.529 7.40436L23.9724 14.5085L33.791 13.822L34.174 19.2993L24.3148 19.9887L31.8077 26.2736L28.22 30.3569L18.0186 21.489L9.15359 31.7309L5.02965 28.1461L11.5749 20.8796L1.71575 21.569L1.33557 16.1322L1.41672 16.1266ZM15.6929 28.4605L21.4543 28.0576L22.3621 41.0409L16.6008 41.4438L15.6929 28.4605Z" fill="black"/>
</g>
</g>
</g>
<defs>
<clipPath id="clip0_2_1472">
<rect width="32.543" height="39.7778" fill="white" transform="translate(0.394531 2.68555) rotate(-4)"/>
</clipPath>
<clipPath id="clip1_2_1472">
<rect width="32.543" height="39.7778" fill="white" transform="translate(0.394531 2.68555) rotate(-4)"/>
</clipPath>
<clipPath id="clip2_2_1472">
<rect width="32.5375" height="39.7364" fill="white" transform="translate(0.396484 2.70215) rotate(-4)"/>
</clipPath>
</defs>
</svg>
