<svg width="228" height="230" viewBox="0 0 228 230" fill="none" xmlns="http://www.w3.org/2000/svg">
<g clip-path="url(#clip0_280_5)">
<g opacity="0.3">
<path d="M198.971 116.134C198.727 110.79 197.949 105.509 196.699 100.349C196.703 69.9864 175.836 40.2611 147.137 29.1563C114.57 16.5562 75.381 26.8703 50.6437 51.5154C43.3736 58.7588 37.1709 67.1841 33.203 76.648C31.5827 80.5135 30.3925 84.5264 29.5014 88.609C28.3665 90.9381 27.33 93.3205 26.4102 95.7541C19.1423 114.956 19.4086 137.406 29.3785 155.354C37.6256 170.204 51.9915 180.854 68.1744 186.296C68.7828 186.559 69.3933 186.815 70.0078 187.058C81.7886 193.855 95.2777 197.528 108.849 198.833C121.752 200.074 134.989 199.241 147.258 195.054C179.183 184.156 200.505 149.832 198.971 116.134Z" fill="white"/>
</g>
<path d="M165.624 131.694C176.756 100.654 160.618 66.4671 129.579 55.3347C98.5394 44.2023 64.3524 60.3402 53.22 91.3796C42.0876 122.419 58.2254 156.606 89.2649 167.739C120.304 178.871 154.491 162.733 165.624 131.694Z" fill="white"/>
<g opacity="0.2">
<path d="M151.027 4.83274C144.394 3.0096 137.63 1.86451 130.823 1.3483C93.6963 -10.7069 49.0602 3.01574 24.0935 33.7038C-4.2389 68.5278 -7.17848 120.543 13.1403 160.574C19.1116 172.338 26.9531 183.269 36.9517 191.876C41.0364 195.391 45.4692 198.44 50.109 201.15C52.5077 203.462 55.0089 205.675 57.6207 207.766C78.2201 224.275 105.776 232.858 131.683 227.79C153.116 223.597 171.841 210.257 184.919 192.626C185.48 191.985 186.037 191.342 186.578 190.686C199.567 178.979 209.41 163.937 216.391 147.861C223.03 132.575 227.265 116.054 227.013 99.39C226.357 56.026 192.844 16.3288 151.027 4.83274Z" fill="white"/>
</g>
</g>
<defs>
<clipPath id="clip0_280_5">
<rect width="228" height="230" fill="white"/>
</clipPath>
</defs>
</svg>
