<svg width="1728" height="187" viewBox="0 0 1728 187" fill="none" xmlns="http://www.w3.org/2000/svg">
<path fill-rule="evenodd" clip-rule="evenodd" d="M1732.96 134.099L1685.25 138.141C1636.1 142.171 1540.68 150.254 1444.16 140.692C1347.63 131.13 1252.89 103.946 1156.03 112.018C1059.17 120.09 963.07 163.44 866.378 162.695C769.686 161.95 675.288 117.132 579.191 85.5281C483.094 53.9243 388.185 35.5568 291.153 52.4454C194.121 69.334 97.8508 121.501 48.2726 147.573L0.137833 173.657L3.20005 14.9543L50.8245 15.3213C99.8922 15.6993 195.141 16.4332 291.833 17.1782C388.526 17.9232 483.775 18.6571 580.467 19.4021C677.159 20.1471 772.408 20.881 869.1 21.626C965.792 22.371 1061.04 23.1049 1157.73 23.8499C1254.43 24.5949 1349.67 25.3288 1446.37 26.0738C1543.06 26.8188 1638.31 27.5527 1687.38 27.9308L1735 28.2977L1732.96 134.099Z" fill="#2CE4FD"/>
<path fill-rule="evenodd" clip-rule="evenodd" d="M1732.96 101.946L1685.25 105.987C1636.1 110.018 1540.68 118.101 1444.16 108.539C1347.63 98.977 1252.89 71.7928 1156.03 79.8645C1059.17 87.9363 963.07 131.286 866.378 130.541C769.686 129.796 675.288 84.9785 579.191 53.3748C483.094 21.771 388.185 3.40351 291.153 20.2921C194.121 37.1807 97.8508 89.3475 48.2726 115.42L0.137833 141.503L3.20005 -17.199L50.8245 -16.832C99.8922 -16.454 195.141 -15.7201 291.833 -14.9751C388.526 -14.2301 483.775 -13.4962 580.467 -12.7512C677.159 -12.0062 772.408 -11.2723 869.1 -10.5273C965.792 -9.78228 1061.04 -9.0484 1157.73 -8.30339C1254.43 -7.55838 1349.67 -6.8245 1446.37 -6.07949C1543.06 -5.33449 1638.31 -4.6006 1687.38 -4.22254L1735 -3.85559L1732.96 101.946Z" fill="#57EAFE"/>
</svg>
