                            <svg width="29" height="29" viewBox="0 0 29 29" fill="none" xmlns="http://www.w3.org/2000/svg" class="w-[20px]"><path d="M11.9388 20.0722L6.45825 14.5904L8.28467 12.764L11.9388 16.4168L19.2445 9.10986L21.0722 10.9376L11.9388 20.0722Z" fill="#17FFD5"></path><path fill-rule="evenodd" clip-rule="evenodd" d="M0 14.4998C0 6.65296 6.36146 0.291504 14.2083 0.291504C22.0552 0.291504 28.4167 6.65296 28.4167 14.4998C28.4167 22.3467 22.0552 28.7082 14.2083 28.7082C6.36146 28.7082 0 22.3467 0 14.4998ZM14.2083 26.1248C12.6817 26.1248 11.17 25.8241 9.75964 25.2399C8.34923 24.6557 7.0677 23.7994 5.98822 22.72C4.90874 21.6405 4.05244 20.3589 3.46823 18.9485C2.88402 17.5381 2.58333 16.0265 2.58333 14.4998C2.58333 12.9732 2.88402 11.4616 3.46823 10.0511C4.05244 8.64073 4.90874 7.3592 5.98822 6.27972C7.0677 5.20024 8.34923 4.34395 9.75964 3.75974C11.17 3.17553 12.6817 2.87484 14.2083 2.87484C17.2915 2.87484 20.2483 4.09961 22.4284 6.27972C24.6086 8.45983 25.8333 11.4167 25.8333 14.4998C25.8333 17.583 24.6086 20.5398 22.4284 22.72C20.2483 24.9001 17.2915 26.1248 14.2083 26.1248Z" fill="#17FFD5"></path></svg>