<svg width="200" height="200" viewBox="0 0 200 200" fill="none" xmlns="http://www.w3.org/2000/svg">
<path d="M200 100C200 155.228 155.228 200 100 200C44.7715 200 0 155.228 0 100C0 44.7715 44.7715 0 100 0C155.228 0 200 44.7715 200 100ZM15.0319 100C15.0319 146.927 53.0734 184.968 100 184.968C146.927 184.968 184.968 146.927 184.968 100C184.968 53.0734 146.927 15.0319 100 15.0319C53.0734 15.0319 15.0319 53.0734 15.0319 100Z" fill="#4292FF"/>
<path d="M123.365 140H103.307V121.528H62.8721L60.9678 106.23L72.6475 89.0283C82.8883 73.8786 92.5579 59.6598 101.656 46.3721L123.365 48.3398V105.532H136.378V121.528H123.365V140ZM80.4551 105.532H103.561V71.2549L80.4551 105.532Z" fill="#4292FF"/>
</svg>
