<svg width="200" height="200" viewBox="0 0 200 200" fill="none" xmlns="http://www.w3.org/2000/svg">
<path d="M200 100C200 155.228 155.228 200 100 200C44.7715 200 0 155.228 0 100C0 44.7715 44.7715 0 100 0C155.228 0 200 44.7715 200 100ZM15.0319 100C15.0319 146.927 53.0734 184.968 100 184.968C146.927 184.968 184.968 146.927 184.968 100C184.968 53.0734 146.927 15.0319 100 15.0319C53.0734 15.0319 15.0319 53.0734 15.0319 100Z" fill="#4292FF"/>
<path d="M75.8076 130.259C76.4001 130.513 77.8389 131.084 80.124 131.973C82.4515 132.819 85.3079 133.665 88.6934 134.512C92.0788 135.316 95.443 135.718 98.7861 135.718C103.103 135.718 106.657 134.575 109.45 132.29C112.243 129.963 113.64 126.768 113.64 122.705C113.64 117.839 111.608 114.305 107.546 112.104C103.526 109.904 97.4954 108.804 89.4551 108.804H75.4268L77.6484 58.3398H130.905L130.524 74.3359H96.0566L95.168 93.8232C107.736 93.8232 117.554 96.193 124.621 100.933C131.688 105.63 135.222 112.231 135.222 120.737C135.222 127.17 133.635 132.713 130.461 137.368C127.287 141.981 123.098 145.514 117.893 147.969C112.73 150.381 107.059 151.587 100.881 151.587C95.6758 151.587 90.7881 151.058 86.2178 150C81.6898 148.942 77.8812 147.821 74.792 146.636C71.7451 145.409 70.2217 144.71 70.2217 144.541L75.8076 130.259Z" fill="#4292FF"/>
</svg>
