<svg width="200" height="200" viewBox="0 0 200 200" fill="none" xmlns="http://www.w3.org/2000/svg">
<path d="M200 100C200 155.228 155.228 200 100 200C44.7715 200 0 155.228 0 100C0 44.7715 44.7715 0 100 0C155.228 0 200 44.7715 200 100ZM15.0319 100C15.0319 146.927 53.0734 184.968 100 184.968C146.927 184.968 184.968 146.927 184.968 100C184.968 53.0734 146.927 15.0319 100 15.0319C53.0734 15.0319 15.0319 53.0734 15.0319 100Z" fill="#4292FF"/>
<path d="M125.714 70.3203C125.248 70.2357 124.085 70.1087 122.223 69.9395C120.361 69.7279 118.139 69.6221 115.558 69.6221C107.221 69.6221 100.916 71.5475 96.6416 75.3984C92.3675 79.207 89.6169 83.0791 88.3896 87.0146C87.1624 90.9502 86.5488 93.7432 86.5488 95.3936C86.5488 95.3089 87.6068 94.7799 89.7227 93.8066C91.8809 92.791 94.4411 91.8812 97.4033 91.0771C100.408 90.2308 103.561 89.8076 106.861 89.8076C112.236 89.8076 117.081 90.8444 121.397 92.918C125.714 94.9915 129.12 98.0807 131.617 102.186C134.156 106.248 135.426 111.22 135.426 117.103C135.426 123.069 133.924 128.465 130.919 133.289C127.957 138.113 123.873 141.901 118.668 144.651C113.463 147.36 107.665 148.714 101.275 148.714C93.8275 148.714 87.4587 146.979 82.1689 143.509C76.8792 140.039 72.8802 135.299 70.1719 129.29C67.5059 123.239 66.1729 116.362 66.1729 108.66C66.1729 97.9961 67.9714 88.5592 71.5684 80.3496C75.1654 72.0977 80.6032 65.623 87.8818 60.9258C95.1605 56.1862 104.174 53.8164 114.923 53.8164C118.139 53.8164 120.89 54.0068 123.175 54.3877C125.46 54.7686 126.603 55.0013 126.603 55.0859L125.714 70.3203ZM86.041 112.786C86.041 119.557 87.4375 124.572 90.2305 127.83C93.0658 131.089 96.7051 132.718 101.148 132.718C105.296 132.718 108.618 131.491 111.114 129.036C113.653 126.539 114.923 123.217 114.923 119.07C114.923 114.585 113.717 111.157 111.305 108.787C108.935 106.375 105.444 105.169 100.831 105.169C98.4189 105.169 96.1126 105.507 93.9121 106.185C91.7116 106.862 89.9342 107.56 88.5801 108.279C87.2259 108.956 86.3796 109.422 86.041 109.676V112.786Z" fill="#4292FF"/>
</svg>
