<svg width="1570" height="986" viewBox="0 0 1570 986" fill="none" xmlns="http://www.w3.org/2000/svg">
<mask id="mask0_310_7" style="mask-type:luminance" maskUnits="userSpaceOnUse" x="0" y="0" width="1570" height="986">
<path d="M1569.9 0H0V985.19H1569.9V0Z" fill="white"/>
</mask>
<g mask="url(#mask0_310_7)">
<mask id="mask1_310_7" style="mask-type:luminance" maskUnits="userSpaceOnUse" x="0" y="0" width="1570" height="986">
<path d="M1540.82 0H29.08C13.0196 0 0 13.0196 0 29.08V956.11C0 972.17 13.0196 985.19 29.08 985.19H1540.82C1556.88 985.19 1569.9 972.17 1569.9 956.11V29.08C1569.9 13.0196 1556.88 0 1540.82 0Z" fill="white"/>
</mask>
<g mask="url(#mask1_310_7)">
<path d="M441.03 898.69H418.83C346.29 898.69 287.27 839.67 287.27 767.13V403.46C287.27 361.16 252.85 326.74 210.55 326.74H-48.4702V271.9H210.55C283.09 271.9 342.11 330.92 342.11 403.46V767.13C342.11 809.43 376.53 843.85 418.83 843.85H441.03C483.33 843.85 517.75 809.43 517.75 767.13V637.85C517.75 565.31 576.77 506.29 649.31 506.29H670.86C713.16 506.29 747.58 471.87 747.58 429.57C747.58 357.03 806.6 298.01 879.14 298.01H901.99C974.53 298.01 1033.55 357.03 1033.55 429.57V613.04C1033.55 655.34 1067.97 689.76 1110.27 689.76H1131.16C1173.46 689.76 1207.88 655.34 1207.88 613.04V275.48C1207.88 202.94 1266.9 143.92 1339.44 143.92H1617.93V198.76H1339.44C1297.14 198.76 1262.72 233.17 1262.72 275.48V613.04C1262.72 685.58 1203.7 744.6 1131.16 744.6H1110.27C1037.73 744.6 978.71 685.58 978.71 613.04V429.57C978.71 387.27 944.29 352.85 901.99 352.85H879.14C836.84 352.85 802.42 387.26 802.42 429.57C802.42 502.11 743.4 561.13 670.86 561.13H649.31C607.01 561.13 572.59 595.54 572.59 637.85V767.13C572.59 839.67 513.57 898.69 441.03 898.69Z" fill="#2B59F0"/>
<g opacity="0.34">
<path d="M434 873.55H418.83C416.22 873.55 413.58 873.45 410.99 873.27L411.32 868.71C413.8 868.89 416.33 868.98 418.83 868.98H434V873.55ZM449.84 873.2L449.47 868.64C456.9 868.03 464.27 866.6 471.36 864.39L472.72 868.75C465.31 871.06 457.61 872.55 449.85 873.19L449.84 873.2ZM395.17 870.91C387.59 869.19 380.18 866.62 373.15 863.28L375.11 859.15C381.83 862.35 388.92 864.81 396.18 866.45L395.17 870.91ZM487.59 862.86L485.59 858.75C492.27 855.49 498.62 851.49 504.45 846.84L507.3 850.41C501.21 855.26 494.58 859.45 487.6 862.85L487.59 862.86ZM359.28 855.34C352.84 850.99 346.87 845.91 341.52 840.26L344.84 837.12C349.96 842.53 355.68 847.39 361.84 851.55L359.28 855.34ZM519.03 839.54L515.68 836.43C520.75 830.97 525.23 824.95 528.98 818.54L532.92 820.85C528.99 827.55 524.32 833.84 519.02 839.55L519.03 839.54ZM331.42 827.86C326.97 821.46 323.22 814.58 320.28 807.39L324.51 805.66C327.32 812.54 330.91 819.13 335.17 825.25L331.42 827.86ZM539.94 806.48L535.69 804.79C538.44 797.88 540.43 790.65 541.6 783.29L546.11 784.01C544.88 791.7 542.8 799.26 539.93 806.48H539.94ZM315.37 792.15C313.56 784.62 312.57 776.84 312.43 769.04L317 768.96C317.13 776.43 318.08 783.87 319.82 791.08L315.38 792.15H315.37ZM547.45 768.08L542.88 768.04C542.88 767.74 542.88 767.43 542.88 767.13V745.21H547.45V767.13C547.45 767.45 547.45 767.76 547.45 768.08ZM316.98 753.33H312.41V730.48H316.98V753.33ZM547.46 729.54H542.89V706.69H547.46V729.54ZM1131.16 719.47H1128.14V714.9H1131.16C1137.64 714.9 1144.13 714.29 1150.43 713.08L1151.29 717.57C1144.7 718.83 1137.93 719.47 1131.16 719.47ZM1112.47 719.47H1110.27C1103.22 719.47 1096.17 718.78 1089.31 717.41L1090.21 712.93C1096.77 714.24 1103.52 714.91 1110.27 714.91H1112.47V719.48V719.47ZM316.98 714.81H312.41V691.96H316.98V714.81ZM1166.73 713.38L1165.2 709.07C1172.21 706.59 1178.96 703.31 1185.27 699.35L1187.7 703.22C1181.1 707.36 1174.05 710.78 1166.72 713.38H1166.73ZM1073.91 713.09C1066.61 710.44 1059.58 706.96 1053.02 702.77L1055.48 698.92C1061.76 702.94 1068.49 706.26 1075.47 708.8L1073.91 713.09ZM1200.58 693.72L1197.6 690.26C1203.24 685.4 1208.36 679.91 1212.82 673.95L1216.48 676.69C1211.83 682.92 1206.48 688.65 1200.59 693.73L1200.58 693.72ZM1040.23 693.17C1034.37 688.05 1029.07 682.27 1024.47 676.01L1028.15 673.3C1032.56 679.3 1037.63 684.82 1043.24 689.73L1040.23 693.17ZM547.46 691.01H542.89V668.16H547.46V691.01ZM316.98 676.29H312.41V653.44H316.98V676.29ZM1225.05 663.19L1221.02 661.03C1224.53 654.46 1227.33 647.5 1229.31 640.33L1233.71 641.55C1231.63 649.04 1228.72 656.32 1225.04 663.18L1225.05 663.19ZM1015.98 662.45C1012.36 655.55 1009.5 648.25 1007.48 640.74L1011.89 639.55C1013.82 646.73 1016.56 653.72 1020.02 660.32L1015.97 662.44L1015.98 662.45ZM547.46 652.49H542.89V637.85C542.89 635.06 543 632.24 543.22 629.47L547.78 629.82C547.57 632.47 547.47 635.17 547.47 637.84V652.48L547.46 652.49ZM316.98 637.76H312.41V614.91H316.98V637.76ZM1236.82 625.87L1232.28 625.33C1232.77 621.29 1233.01 617.15 1233.01 613.05V602.79H1237.58V613.05C1237.58 617.34 1237.32 621.65 1236.81 625.87H1236.82ZM1004.51 625.03C1004.07 621.08 1003.84 617.05 1003.84 613.05V601.96H1008.41V613.05C1008.41 616.88 1008.62 620.74 1009.05 624.52L1004.51 625.03ZM550.1 614.7L545.65 613.67C547.41 606.1 550.02 598.7 553.4 591.69L557.52 593.68C554.28 600.39 551.79 607.47 550.11 614.71L550.1 614.7ZM316.98 599.24H312.41V576.39H316.98V599.24ZM1237.59 587.11H1233.02V564.26H1237.59V587.11ZM1008.41 586.28H1003.84V563.43H1008.41V586.28ZM565.18 580.42L561.41 577.84C565.8 571.43 570.9 565.48 576.58 560.16L579.7 563.5C574.26 568.59 569.38 574.29 565.18 580.43V580.42ZM316.98 560.72H312.41V537.87H316.98V560.72ZM591.63 553.89L589.04 550.13C595.45 545.72 602.36 542.01 609.56 539.1L611.27 543.34C604.38 546.12 597.77 549.67 591.63 553.89ZM1237.59 548.59H1233.02V525.74H1237.59V548.59ZM1008.41 547.76H1003.84V524.91H1008.41V547.76ZM625.86 538.71L624.81 534.26C632.35 532.48 640.13 531.53 647.93 531.43L647.99 536C640.52 536.09 633.07 537 625.86 538.71ZM670.86 536H663.63V531.43H670.86C675.96 531.43 681.08 531.05 686.08 530.3L686.76 534.82C681.53 535.6 676.19 536 670.86 536ZM702.35 531.26L701 526.89C708.1 524.69 714.98 521.7 721.45 517.99L723.72 521.95C716.96 525.82 709.77 528.95 702.35 531.25V531.26ZM316.98 522.2H312.41V499.35H316.98V522.2ZM736.96 512.98L734.12 509.4C739.95 504.77 745.29 499.5 749.98 493.72L753.53 496.6C748.63 502.64 743.06 508.15 736.96 512.98ZM1237.59 510.06H1233.02V487.21H1237.59V510.06ZM1008.41 509.23H1003.84V486.38H1008.41V509.23ZM316.98 483.68H312.41V460.83H316.98V483.68ZM762.65 483.47L758.71 481.15C762.49 474.73 765.56 467.88 767.84 460.81L772.19 462.21C769.81 469.61 766.6 476.76 762.65 483.47ZM1237.59 471.54H1233.02V448.69H1237.59V471.54ZM1008.41 470.71H1003.84V447.86H1008.41V470.71ZM775.92 446.65L771.41 445.92C772.28 440.55 772.71 435.05 772.71 429.57C772.71 427.51 772.77 425.43 772.89 423.38L777.45 423.64C777.34 425.6 777.28 427.6 777.28 429.57C777.28 435.29 776.82 441.04 775.92 446.65ZM316.98 445.15H312.41V422.3H316.98V445.15ZM1237.59 433.02H1233.02V410.17H1237.59V433.02ZM1008.41 432.19H1003.84V429.57C1003.84 422.95 1003.2 416.34 1001.94 409.91L1006.42 409.03C1007.73 415.75 1008.4 422.66 1008.4 429.57V432.19H1008.41ZM779.47 408.48L775 407.54C776.6 399.93 779.06 392.48 782.29 385.4L786.45 387.3C783.36 394.07 781.01 401.2 779.47 408.48ZM316.98 406.63H312.41V403.46C312.41 397.03 311.81 390.59 310.62 384.33L315.11 383.48C316.35 390.02 316.98 396.74 316.98 403.46V406.63ZM997.88 395.16C995.37 388.16 992.07 381.42 988.08 375.13L991.94 372.68C996.11 379.26 999.55 386.3 1002.18 393.61L997.88 395.15V395.16ZM1237.59 394.5H1233.02V371.65H1237.59V394.5ZM793.84 373.88L790.02 371.38C794.27 364.88 799.26 358.82 804.83 353.39L808.02 356.66C802.69 361.86 797.92 367.66 793.85 373.88H793.84ZM306.63 369.55C304.16 362.54 300.9 355.78 296.94 349.47L300.81 347.04C304.94 353.64 308.35 360.7 310.94 368.03L306.63 369.55ZM978.95 362.85C974.07 357.22 968.56 352.13 962.58 347.7L965.3 344.03C971.54 348.66 977.3 353.98 982.4 359.86L978.95 362.86V362.85ZM1237.59 355.98H1233.02V333.13H1237.59V355.98ZM819.74 346.82L817.07 343.11C823.39 338.56 830.22 334.71 837.36 331.66L839.16 335.86C832.33 338.78 825.8 342.46 819.75 346.82H819.74ZM949.63 339.52C943.05 336.03 936.07 333.27 928.9 331.31L930.1 326.9C937.6 328.95 944.89 331.84 951.77 335.48L949.63 339.52ZM287.87 337.14C283.02 331.49 277.54 326.36 271.59 321.9L274.33 318.24C280.55 322.9 286.27 328.26 291.34 334.16L287.87 337.14ZM853.64 330.94L852.5 326.51C860 324.58 867.76 323.47 875.56 323.21L875.71 327.78C868.24 328.03 860.82 329.09 853.64 330.94ZM913.87 328.41C909.96 327.96 905.96 327.72 901.99 327.72H891.31V323.15H901.99C906.13 323.15 910.31 323.39 914.4 323.87L913.87 328.41ZM1237.59 317.45H1233.02V294.6H1237.59V317.45ZM258.68 313.66C252.12 310.13 245.15 307.33 237.99 305.34L239.22 300.94C246.71 303.03 253.98 305.96 260.84 309.64L258.68 313.67V313.66ZM222.97 302.35C218.88 301.85 214.7 301.6 210.55 301.6H200.43V297.03H210.55C214.89 297.03 219.25 297.29 223.52 297.81L222.97 302.35ZM184.76 301.6H161.91V297.03H184.76V301.6ZM146.24 301.6H123.39V297.03H146.24V301.6ZM107.72 301.6H84.8699V297.03H107.72V301.6ZM1237.59 278.93H1233.02V275.48C1233.02 268.86 1233.63 262.23 1234.84 255.77L1239.33 256.61C1238.17 262.79 1237.59 269.13 1237.59 275.48V278.93ZM1243.28 241.83L1238.97 240.32C1241.54 232.99 1244.93 225.92 1249.04 219.3L1252.92 221.72C1248.98 228.05 1245.74 234.82 1243.28 241.83ZM1261.96 209.37L1258.49 206.4C1263.54 200.49 1269.25 195.12 1275.46 190.44L1278.21 194.09C1272.27 198.57 1266.8 203.71 1261.96 209.37ZM1291.09 185.82L1288.92 181.8C1295.77 178.1 1303.04 175.15 1310.52 173.04L1311.76 177.44C1304.6 179.46 1297.65 182.28 1291.1 185.82H1291.09ZM1326.75 174.42L1326.19 169.88C1330.56 169.34 1335.01 169.06 1339.44 169.06H1349.28V173.63H1339.44C1335.2 173.63 1330.93 173.89 1326.75 174.41V174.42ZM1464.85 173.63H1442V169.06H1464.85V173.63ZM1426.33 173.63H1403.48V169.06H1426.33V173.63ZM1387.8 173.63H1364.95V169.06H1387.8V173.63ZM68.2999 301.6H45.4499V297.03H68.2999V301.6ZM29.7699 301.6H6.91987V297.03H29.7699V301.6ZM-8.75013 301.6H-31.6001V297.03H-8.75013V301.6ZM1583.33 173.63H1560.48V169.06H1583.33V173.63ZM1544.81 173.63H1521.96V169.06H1544.81V173.63ZM1506.29 173.63H1483.44V169.06H1506.29V173.63Z" fill="white"/>
</g>
<g opacity="0.26">
<path d="M1616.92 144.93V197.76H1339.44C1296.58 197.76 1261.72 232.63 1261.72 275.48V613.04C1261.72 685.03 1203.15 743.6 1131.16 743.6H1110.27C1038.28 743.6 979.71 685.03 979.71 613.04V429.57C979.71 386.71 944.84 351.85 901.99 351.85H879.14C836.28 351.85 801.42 386.72 801.42 429.57C801.42 501.56 742.85 560.13 670.87 560.13H649.32C606.46 560.13 571.6 595 571.6 637.85V767.13C571.6 839.12 513.03 897.69 441.04 897.69H418.84C346.85 897.69 288.28 839.12 288.28 767.13V403.46C288.28 360.6 253.41 325.74 210.56 325.74H-47.4602V272.91H210.55C282.54 272.91 341.11 331.48 341.11 403.47V767.14C341.11 810 375.98 844.86 418.83 844.86H441.03C483.89 844.86 518.75 809.99 518.75 767.14V637.86C518.75 565.87 577.32 507.3 649.31 507.3H670.86C713.72 507.3 748.58 472.43 748.58 429.58C748.58 357.59 807.15 299.02 879.14 299.02H901.99C973.98 299.02 1032.55 357.59 1032.55 429.58V613.05C1032.55 655.91 1067.42 690.77 1110.27 690.77H1131.16C1174.02 690.77 1208.88 655.9 1208.88 613.05V275.49C1208.88 203.5 1267.45 144.93 1339.44 144.93H1616.92ZM1617.93 143.92H1339.44C1266.9 143.92 1207.88 202.94 1207.88 275.48V613.04C1207.88 655.34 1173.46 689.76 1131.16 689.76H1110.27C1067.97 689.76 1033.55 655.35 1033.55 613.04V429.57C1033.55 357.03 974.53 298.01 901.99 298.01H879.14C806.6 298.01 747.58 357.03 747.58 429.57C747.58 471.87 713.16 506.29 670.86 506.29H649.31C576.77 506.29 517.75 565.31 517.75 637.85V767.13C517.75 809.43 483.33 843.85 441.03 843.85H418.83C376.53 843.85 342.11 809.43 342.11 767.13V403.46C342.11 330.92 283.09 271.9 210.55 271.9H-48.4702V326.74H210.55C252.85 326.74 287.27 361.16 287.27 403.46V767.13C287.27 839.67 346.29 898.69 418.83 898.69H441.03C513.57 898.69 572.59 839.67 572.59 767.13V637.85C572.59 595.55 607.01 561.13 649.31 561.13H670.86C743.4 561.13 802.42 502.11 802.42 429.57C802.42 387.27 836.84 352.85 879.14 352.85H901.99C944.29 352.85 978.71 387.27 978.71 429.57V613.04C978.71 685.58 1037.73 744.6 1110.27 744.6H1131.16C1203.7 744.6 1262.72 685.58 1262.72 613.04V275.48C1262.72 233.18 1297.14 198.76 1339.44 198.76H1617.93V143.92Z" fill="#07C2FC"/>
</g>
<path opacity="0.26" d="M430.87 801.83H429.87V870.91H430.87V801.83Z" stroke="#07C2FC" stroke-width="1.01" stroke-miterlimit="10"/>
<path d="M453.39 722.07H407.53C393.353 722.07 381.86 733.563 381.86 747.74V794.43C381.86 808.607 393.353 820.1 407.53 820.1H453.39C467.567 820.1 479.06 808.607 479.06 794.43V747.74C479.06 733.563 467.567 722.07 453.39 722.07Z" fill="url(#paint0_linear_310_7)"/>
<g opacity="0.34">
<path d="M453.4 723.02C467.03 723.02 478.12 734.11 478.12 747.74V794.44C478.12 808.07 467.03 819.16 453.4 819.16H407.53C393.9 819.16 382.81 808.07 382.81 794.44V747.74C382.81 734.11 393.9 723.02 407.53 723.02H453.4ZM453.4 722.07H407.53C393.35 722.07 381.86 733.56 381.86 747.74V794.44C381.86 808.62 393.35 820.11 407.53 820.11H453.4C467.58 820.11 479.07 808.62 479.07 794.44V747.74C479.07 733.56 467.58 722.07 453.4 722.07Z" fill="white"/>
</g>
<path d="M429.26 784.56V764.23H429.06C428.43 764.67 427.8 765.11 427.18 765.56C426.56 766.01 425.94 766.45 425.32 766.9C424.7 767.35 424.08 767.8 423.46 768.25V764.39C424.43 763.67 425.39 762.97 426.36 762.26C427.33 761.56 428.29 760.85 429.26 760.15H433.26V784.55H429.26V784.56Z" fill="#FDD04A"/>
<path d="M618.53 366H572.67C558.493 366 547 377.493 547 391.67V438.36C547 452.537 558.493 464.03 572.67 464.03H618.53C632.707 464.03 644.2 452.537 644.2 438.36V391.67C644.2 377.493 632.707 366 618.53 366Z" fill="#2B59F0"/>
<path opacity="0.26" d="M618.53 366H572.67C558.493 366 547 377.493 547 391.67V438.36C547 452.537 558.493 464.03 572.67 464.03H618.53C632.707 464.03 644.2 452.537 644.2 438.36V391.67C644.2 377.493 632.707 366 618.53 366Z" stroke="#07C2FC" stroke-width="1.01" stroke-miterlimit="10"/>
<path d="M587.38 410.1V409.9C587.38 408.97 587.55 408.07 587.88 407.2C588.21 406.33 588.72 405.55 589.39 404.85C590.06 404.15 590.9 403.6 591.9 403.19C592.9 402.78 594.07 402.57 595.42 402.57C597.03 402.57 598.43 402.86 599.63 403.46C600.83 404.05 601.75 404.85 602.41 405.87C603.07 406.89 603.39 408.04 603.39 409.33C603.39 410.4 603.19 411.37 602.79 412.22C602.39 413.07 601.87 413.89 601.23 414.66C600.59 415.43 599.9 416.24 599.16 417.07L593.14 423.85V424.08H603.81V427.46H587.51V424.92L596.57 414.87C597.01 414.38 597.44 413.87 597.87 413.34C598.3 412.81 598.64 412.24 598.92 411.63C599.2 411.02 599.33 410.37 599.33 409.66C599.33 408.91 599.16 408.25 598.81 407.68C598.46 407.11 597.99 406.67 597.39 406.36C596.79 406.04 596.1 405.89 595.32 405.89C594.46 405.89 593.73 406.07 593.12 406.44C592.51 406.81 592.05 407.3 591.73 407.91C591.41 408.52 591.25 409.17 591.25 409.88V410.09H587.37L587.38 410.1Z" fill="#FDD04A"/>
<path opacity="0.26" d="M597 464H596V533.08H597V464Z" stroke="#07C2FC" stroke-width="1.01" stroke-miterlimit="10"/>
<path opacity="0.26" d="M1388.53 7H1342.67C1328.49 7 1317 18.4928 1317 32.67V79.36C1317 93.5371 1328.49 105.03 1342.67 105.03H1388.53C1402.71 105.03 1414.2 93.5371 1414.2 79.36V32.67C1414.2 18.4928 1402.71 7 1388.53 7Z" stroke="#07C2FC" stroke-width="1.01" stroke-miterlimit="10"/>
<path opacity="0.26" d="M1366.45 99.98H1365.45V169.06H1366.45V99.98Z" stroke="#07C2FC" stroke-width="1.01" stroke-miterlimit="10"/>
<path d="M1388.53 7H1342.67C1328.49 7 1317 18.4928 1317 32.67V79.36C1317 93.5371 1328.49 105.03 1342.67 105.03H1388.53C1402.71 105.03 1414.2 93.5371 1414.2 79.36V32.67C1414.2 18.4928 1402.71 7 1388.53 7Z" fill="#2B59F0"/>
<path d="M1365.36 71.348C1363.6 71.348 1362.04 71.0249 1360.66 70.3786C1359.29 69.7322 1358.21 68.8415 1357.41 67.7063C1356.6 66.5711 1356.18 65.2702 1356.15 63.8036H1361.37C1361.43 64.7897 1361.84 65.5893 1362.61 66.2024C1363.38 66.8156 1364.3 67.1222 1365.36 67.1222C1366.21 67.1222 1366.95 66.9357 1367.6 66.5629C1368.25 66.1817 1368.76 65.6555 1369.13 64.9844C1369.5 64.3049 1369.69 63.526 1369.69 62.6477C1369.69 61.7528 1369.49 60.9657 1369.11 60.2862C1368.74 59.6068 1368.22 59.0765 1367.56 58.6953C1366.9 58.3142 1366.14 58.1194 1365.29 58.1112C1364.54 58.1112 1363.81 58.2644 1363.11 58.571C1362.41 58.8776 1361.87 59.296 1361.48 59.8263L1356.7 58.9688L1357.9 45.5455H1373.46V49.9453H1362.34L1361.68 56.3214H1361.83C1362.28 55.6916 1362.95 55.1696 1363.86 54.7553C1364.76 54.341 1365.77 54.1339 1366.89 54.1339C1368.42 54.1339 1369.79 54.4943 1370.99 55.2152C1372.19 55.9361 1373.14 56.9263 1373.84 58.1857C1374.53 59.4369 1374.88 60.8787 1374.87 62.511C1374.88 64.2262 1374.48 65.7508 1373.68 67.0849C1372.88 68.4106 1371.77 69.4547 1370.33 70.217C1368.91 70.971 1367.25 71.348 1365.36 71.348Z" fill="#FDD04A"/>
<path d="M1146.53 550H1100.67C1086.49 550 1075 561.493 1075 575.67V622.36C1075 636.537 1086.49 648.03 1100.67 648.03H1146.53C1160.71 648.03 1172.2 636.537 1172.2 622.36V575.67C1172.2 561.493 1160.71 550 1146.53 550Z" fill="#2B59F0"/>
<path d="M1128.75 587.31V603.58H1131.83V606.96H1128.75V611.72H1124.91V606.96H1113.09V603.55C1114.57 600.82 1116.15 598.11 1117.83 595.41C1119.51 592.71 1121.19 590.01 1122.85 587.32H1128.75V587.31ZM1124.9 603.58V590.55H1124.7C1123.36 592.58 1122.02 594.69 1120.68 596.89C1119.34 599.09 1118.07 601.27 1116.89 603.42V603.58H1124.9Z" fill="#FDD04A"/>
<path opacity="0.26" d="M1124.45 642.98H1123.45V712.06H1124.45V642.98Z" stroke="#07C2FC" stroke-width="1.01" stroke-miterlimit="10"/>
<path d="M887.53 174H841.67C827.49 174 816 185.493 816 199.67V246.36C816 260.537 827.49 272.03 841.67 272.03H887.53C901.71 272.03 913.2 260.537 913.2 246.36V199.67C913.2 185.493 901.71 174 887.53 174Z" fill="#2B59F0"/>
<path d="M863.472 235.348C861.616 235.348 859.963 235.029 858.513 234.391C857.071 233.745 855.932 232.858 855.095 231.731C854.266 230.596 853.839 229.287 853.815 227.804H859.234C859.267 228.425 859.47 228.972 859.843 229.444C860.224 229.908 860.729 230.269 861.359 230.526C861.989 230.782 862.697 230.911 863.484 230.911C864.305 230.911 865.03 230.766 865.659 230.476C866.289 230.186 866.782 229.784 867.138 229.27C867.495 228.757 867.673 228.164 867.673 227.493C867.673 226.813 867.482 226.213 867.101 225.691C866.728 225.16 866.19 224.746 865.485 224.448C864.789 224.15 863.961 224 863 224H860.626V220.048H863C863.812 220.048 864.528 219.907 865.15 219.625C865.78 219.344 866.268 218.954 866.616 218.457C866.964 217.952 867.138 217.363 867.138 216.692C867.138 216.054 866.985 215.495 866.679 215.014C866.38 214.525 865.958 214.144 865.411 213.871C864.872 213.597 864.243 213.461 863.522 213.461C862.792 213.461 862.125 213.593 861.521 213.858C860.916 214.115 860.431 214.484 860.066 214.964C859.702 215.445 859.507 216.009 859.482 216.655H854.324C854.349 215.188 854.768 213.896 855.58 212.777C856.392 211.658 857.485 210.784 858.861 210.154C860.245 209.516 861.806 209.197 863.547 209.197C865.303 209.197 866.84 209.516 868.158 210.154C869.475 210.792 870.498 211.654 871.228 212.74C871.965 213.817 872.33 215.027 872.321 216.369C872.33 217.794 871.886 218.983 870.991 219.936C870.105 220.889 868.949 221.494 867.524 221.751V221.95C869.396 222.19 870.822 222.84 871.799 223.901C872.785 224.953 873.274 226.271 873.266 227.853C873.274 229.303 872.856 230.592 872.011 231.719C871.174 232.846 870.018 233.732 868.543 234.379C867.068 235.025 865.378 235.348 863.472 235.348Z" fill="#FDD04A"/>
<path opacity="0.26" d="M865.45 266.98H864.45V336.06H865.45V266.98Z" stroke="#07C2FC" stroke-width="1.01" stroke-miterlimit="10"/>
<path d="M441.03 898.69H418.83C346.29 898.69 287.27 839.67 287.27 767.13V403.46C287.27 361.16 252.85 326.74 210.55 326.74H-48.4702V271.9H210.55C283.09 271.9 342.11 330.92 342.11 403.46V767.13C342.11 809.43 376.53 843.85 418.83 843.85H441.03C483.33 843.85 517.75 809.43 517.75 767.13V637.85C517.75 565.31 576.77 506.29 649.31 506.29H670.86C713.16 506.29 747.58 471.87 747.58 429.57C747.58 357.03 806.6 298.01 879.14 298.01H901.99C974.53 298.01 1033.55 357.03 1033.55 429.57V613.04C1033.55 655.34 1067.97 689.76 1110.27 689.76H1131.16C1173.46 689.76 1207.88 655.34 1207.88 613.04V275.48C1207.88 202.94 1266.9 143.92 1339.44 143.92H1617.93V198.76H1339.44C1297.14 198.76 1262.72 233.17 1262.72 275.48V613.04C1262.72 685.58 1203.7 744.6 1131.16 744.6H1110.27C1037.73 744.6 978.71 685.58 978.71 613.04V429.57C978.71 387.27 944.29 352.85 901.99 352.85H879.14C836.84 352.85 802.42 387.26 802.42 429.57C802.42 502.11 743.4 561.13 670.86 561.13H649.31C607.01 561.13 572.59 595.54 572.59 637.85V767.13C572.59 839.67 513.57 898.69 441.03 898.69Z" fill="url(#paint1_linear_310_7)"/>
<path d="M434 873.55H418.83C416.22 873.55 413.58 873.45 410.99 873.27L411.32 868.71C413.8 868.89 416.33 868.98 418.83 868.98H434V873.55ZM449.84 873.2L449.47 868.64C456.9 868.03 464.27 866.6 471.36 864.39L472.72 868.75C465.31 871.06 457.61 872.55 449.85 873.19L449.84 873.2ZM395.17 870.91C387.59 869.19 380.18 866.62 373.15 863.28L375.11 859.15C381.83 862.35 388.92 864.81 396.18 866.45L395.17 870.91ZM487.59 862.86L485.59 858.75C492.27 855.49 498.62 851.49 504.45 846.84L507.3 850.41C501.21 855.26 494.58 859.45 487.6 862.85L487.59 862.86ZM359.28 855.34C352.84 850.99 346.87 845.91 341.52 840.26L344.84 837.12C349.96 842.53 355.68 847.39 361.84 851.55L359.28 855.34ZM519.03 839.54L515.68 836.43C520.75 830.97 525.23 824.95 528.98 818.54L532.92 820.85C528.99 827.55 524.32 833.84 519.02 839.55L519.03 839.54ZM331.42 827.86C326.97 821.46 323.22 814.58 320.28 807.39L324.51 805.66C327.32 812.54 330.91 819.13 335.17 825.25L331.42 827.86ZM539.94 806.48L535.69 804.79C538.44 797.88 540.43 790.65 541.6 783.29L546.11 784.01C544.88 791.7 542.8 799.26 539.93 806.48H539.94ZM315.37 792.15C313.56 784.62 312.57 776.84 312.43 769.04L317 768.96C317.13 776.43 318.08 783.87 319.82 791.08L315.38 792.15H315.37ZM547.45 768.08L542.88 768.04C542.88 767.74 542.88 767.43 542.88 767.13V745.21H547.45V767.13C547.45 767.45 547.45 767.76 547.45 768.08ZM316.98 753.33H312.41V730.48H316.98V753.33ZM547.46 729.54H542.89V706.69H547.46V729.54ZM1131.16 719.47H1128.14V714.9H1131.16C1137.64 714.9 1144.13 714.29 1150.43 713.08L1151.29 717.57C1144.7 718.83 1137.93 719.47 1131.16 719.47ZM1112.47 719.47H1110.27C1103.22 719.47 1096.17 718.78 1089.31 717.41L1090.21 712.93C1096.77 714.24 1103.52 714.91 1110.27 714.91H1112.47V719.48V719.47ZM316.98 714.81H312.41V691.96H316.98V714.81ZM1166.73 713.38L1165.2 709.07C1172.21 706.59 1178.96 703.31 1185.27 699.35L1187.7 703.22C1181.1 707.36 1174.05 710.78 1166.72 713.38H1166.73ZM1073.91 713.09C1066.61 710.44 1059.58 706.96 1053.02 702.77L1055.48 698.92C1061.76 702.94 1068.49 706.26 1075.47 708.8L1073.91 713.09ZM1200.58 693.72L1197.6 690.26C1203.24 685.4 1208.36 679.91 1212.82 673.95L1216.48 676.69C1211.83 682.92 1206.48 688.65 1200.59 693.73L1200.58 693.72ZM1040.23 693.17C1034.37 688.05 1029.07 682.27 1024.47 676.01L1028.15 673.3C1032.56 679.3 1037.63 684.82 1043.24 689.73L1040.23 693.17ZM547.46 691.01H542.89V668.16H547.46V691.01ZM316.98 676.29H312.41V653.44H316.98V676.29ZM1225.05 663.19L1221.02 661.03C1224.53 654.46 1227.33 647.5 1229.31 640.33L1233.71 641.55C1231.63 649.04 1228.72 656.32 1225.04 663.18L1225.05 663.19ZM1015.98 662.45C1012.36 655.55 1009.5 648.25 1007.48 640.74L1011.89 639.55C1013.82 646.73 1016.56 653.72 1020.02 660.32L1015.97 662.44L1015.98 662.45ZM547.46 652.49H542.89V637.85C542.89 635.06 543 632.24 543.22 629.47L547.78 629.82C547.57 632.47 547.47 635.17 547.47 637.84V652.48L547.46 652.49ZM316.98 637.76H312.41V614.91H316.98V637.76ZM1236.82 625.87L1232.28 625.33C1232.77 621.29 1233.01 617.15 1233.01 613.05V602.79H1237.58V613.05C1237.58 617.34 1237.32 621.65 1236.81 625.87H1236.82ZM1004.51 625.03C1004.07 621.08 1003.84 617.05 1003.84 613.05V601.96H1008.41V613.05C1008.41 616.88 1008.62 620.74 1009.05 624.52L1004.51 625.03ZM550.1 614.7L545.65 613.67C547.41 606.1 550.02 598.7 553.4 591.69L557.52 593.68C554.28 600.39 551.79 607.47 550.11 614.71L550.1 614.7ZM316.98 599.24H312.41V576.39H316.98V599.24ZM1237.59 587.11H1233.02V564.26H1237.59V587.11ZM1008.41 586.28H1003.84V563.43H1008.41V586.28ZM565.18 580.42L561.41 577.84C565.8 571.43 570.9 565.48 576.58 560.16L579.7 563.5C574.26 568.59 569.38 574.29 565.18 580.43V580.42ZM316.98 560.72H312.41V537.87H316.98V560.72ZM591.63 553.89L589.04 550.13C595.45 545.72 602.36 542.01 609.56 539.1L611.27 543.34C604.38 546.12 597.77 549.67 591.63 553.89ZM1237.59 548.59H1233.02V525.74H1237.59V548.59ZM1008.41 547.76H1003.84V524.91H1008.41V547.76ZM625.86 538.71L624.81 534.26C632.35 532.48 640.13 531.53 647.93 531.43L647.99 536C640.52 536.09 633.07 537 625.86 538.71ZM670.86 536H663.63V531.43H670.86C675.96 531.43 681.08 531.05 686.08 530.3L686.76 534.82C681.53 535.6 676.19 536 670.86 536ZM702.35 531.26L701 526.89C708.1 524.69 714.98 521.7 721.45 517.99L723.72 521.95C716.96 525.82 709.77 528.95 702.35 531.25V531.26ZM316.98 522.2H312.41V499.35H316.98V522.2ZM736.96 512.98L734.12 509.4C739.95 504.77 745.29 499.5 749.98 493.72L753.53 496.6C748.63 502.64 743.06 508.15 736.96 512.98ZM1237.59 510.06H1233.02V487.21H1237.59V510.06ZM1008.41 509.23H1003.84V486.38H1008.41V509.23ZM316.98 483.68H312.41V460.83H316.98V483.68ZM762.65 483.47L758.71 481.15C762.49 474.73 765.56 467.88 767.84 460.81L772.19 462.21C769.81 469.61 766.6 476.76 762.65 483.47ZM1237.59 471.54H1233.02V448.69H1237.59V471.54ZM1008.41 470.71H1003.84V447.86H1008.41V470.71ZM775.92 446.65L771.41 445.92C772.28 440.55 772.71 435.05 772.71 429.57C772.71 427.51 772.77 425.43 772.89 423.38L777.45 423.64C777.34 425.6 777.28 427.6 777.28 429.57C777.28 435.29 776.82 441.04 775.92 446.65ZM316.98 445.15H312.41V422.3H316.98V445.15ZM1237.59 433.02H1233.02V410.17H1237.59V433.02ZM1008.41 432.19H1003.84V429.57C1003.84 422.95 1003.2 416.34 1001.94 409.91L1006.42 409.03C1007.73 415.75 1008.4 422.66 1008.4 429.57V432.19H1008.41ZM779.47 408.48L775 407.54C776.6 399.93 779.06 392.48 782.29 385.4L786.45 387.3C783.36 394.07 781.01 401.2 779.47 408.48ZM316.98 406.63H312.41V403.46C312.41 397.03 311.81 390.59 310.62 384.33L315.11 383.48C316.35 390.02 316.98 396.74 316.98 403.46V406.63ZM997.88 395.16C995.37 388.16 992.07 381.42 988.08 375.13L991.94 372.68C996.11 379.26 999.55 386.3 1002.18 393.61L997.88 395.15V395.16ZM1237.59 394.5H1233.02V371.65H1237.59V394.5ZM793.84 373.88L790.02 371.38C794.27 364.88 799.26 358.82 804.83 353.39L808.02 356.66C802.69 361.86 797.92 367.66 793.85 373.88H793.84ZM306.63 369.55C304.16 362.54 300.9 355.78 296.94 349.47L300.81 347.04C304.94 353.64 308.35 360.7 310.94 368.03L306.63 369.55ZM978.95 362.85C974.07 357.22 968.56 352.13 962.58 347.7L965.3 344.03C971.54 348.66 977.3 353.98 982.4 359.86L978.95 362.86V362.85ZM1237.59 355.98H1233.02V333.13H1237.59V355.98ZM819.74 346.82L817.07 343.11C823.39 338.56 830.22 334.71 837.36 331.66L839.16 335.86C832.33 338.78 825.8 342.46 819.75 346.82H819.74ZM949.63 339.52C943.05 336.03 936.07 333.27 928.9 331.31L930.1 326.9C937.6 328.95 944.89 331.84 951.77 335.48L949.63 339.52ZM287.87 337.14C283.02 331.49 277.54 326.36 271.59 321.9L274.33 318.24C280.55 322.9 286.27 328.26 291.34 334.16L287.87 337.14ZM853.64 330.94L852.5 326.51C860 324.58 867.76 323.47 875.56 323.21L875.71 327.78C868.24 328.03 860.82 329.09 853.64 330.94ZM913.87 328.41C909.96 327.96 905.96 327.72 901.99 327.72H891.31V323.15H901.99C906.13 323.15 910.31 323.39 914.4 323.87L913.87 328.41ZM1237.59 317.45H1233.02V294.6H1237.59V317.45ZM258.68 313.66C252.12 310.13 245.15 307.33 237.99 305.34L239.22 300.94C246.71 303.03 253.98 305.96 260.84 309.64L258.68 313.67V313.66ZM222.97 302.35C218.88 301.85 214.7 301.6 210.55 301.6H200.43V297.03H210.55C214.89 297.03 219.25 297.29 223.52 297.81L222.97 302.35ZM184.76 301.6H161.91V297.03H184.76V301.6ZM146.24 301.6H123.39V297.03H146.24V301.6ZM107.72 301.6H84.8699V297.03H107.72V301.6ZM1237.59 278.93H1233.02V275.48C1233.02 268.86 1233.63 262.23 1234.84 255.77L1239.33 256.61C1238.17 262.79 1237.59 269.13 1237.59 275.48V278.93ZM1243.28 241.83L1238.97 240.32C1241.54 232.99 1244.93 225.92 1249.04 219.3L1252.92 221.72C1248.98 228.05 1245.74 234.82 1243.28 241.83ZM1261.96 209.37L1258.49 206.4C1263.54 200.49 1269.25 195.12 1275.46 190.44L1278.21 194.09C1272.27 198.57 1266.8 203.71 1261.96 209.37ZM1291.09 185.82L1288.92 181.8C1295.77 178.1 1303.04 175.15 1310.52 173.04L1311.76 177.44C1304.6 179.46 1297.65 182.28 1291.1 185.82H1291.09ZM1326.75 174.42L1326.19 169.88C1330.56 169.34 1335.01 169.06 1339.44 169.06H1349.28V173.63H1339.44C1335.2 173.63 1330.93 173.89 1326.75 174.41V174.42ZM1464.85 173.63H1442V169.06H1464.85V173.63ZM1426.33 173.63H1403.48V169.06H1426.33V173.63ZM1387.8 173.63H1364.95V169.06H1387.8V173.63ZM68.2999 301.6H45.4499V297.03H68.2999V301.6ZM29.7699 301.6H6.91987V297.03H29.7699V301.6ZM-8.75013 301.6H-31.6001V297.03H-8.75013V301.6ZM1583.33 173.63H1560.48V169.06H1583.33V173.63ZM1544.81 173.63H1521.96V169.06H1544.81V173.63ZM1506.29 173.63H1483.44V169.06H1506.29V173.63Z" fill="url(#paint2_linear_310_7)"/>
</g>
</g>
<defs>
<linearGradient id="paint0_linear_310_7" x1="411.5" y1="786.5" x2="469.5" y2="711.5" gradientUnits="userSpaceOnUse">
<stop stop-color="#1BB2F5"/>
<stop offset="1" stop-color="#2C67F2"/>
</linearGradient>
<linearGradient id="paint1_linear_310_7" x1="181.31" y1="612.33" x2="1902.5" y2="80" gradientUnits="userSpaceOnUse">
<stop stop-color="#0DBEF9"/>
<stop offset="1" stop-color="#4509AE"/>
</linearGradient>
<linearGradient id="paint2_linear_310_7" x1="743.5" y1="468.5" x2="-31.2701" y2="459.078" gradientUnits="userSpaceOnUse">
<stop stop-color="#04C3FC"/>
<stop offset="1" stop-color="#5884DF"/>
</linearGradient>
</defs>
</svg>
