<svg width="16" height="21" viewBox="0 0 16 21" fill="none" xmlns="http://www.w3.org/2000/svg">
<path d="M13.9758 12.1615L10.037 10.6902L8.60462 6.64432C8.51528 6.39183 8.35245 6.17369 8.13824 6.01955C7.92403 5.8654 7.66882 5.78271 7.40728 5.78271C7.14573 5.78271 6.89053 5.8654 6.67632 6.01955C6.4621 6.17369 6.29927 6.39183 6.20993 6.64432L4.77759 10.6902L0.8388 12.1615C0.592987 12.2533 0.380629 12.4205 0.230564 12.6406C0.0804987 12.8606 0 13.1228 0 13.3914C0 13.6601 0.0804987 13.9222 0.230564 14.1423C0.380629 14.3623 0.592987 14.5296 0.8388 14.6213L4.77759 16.0926L6.20993 20.1385C6.29927 20.391 6.4621 20.6091 6.67632 20.7633C6.89053 20.9174 7.14573 21.0001 7.40728 21.0001C7.66882 21.0001 7.92403 20.9174 8.13824 20.7633C8.35245 20.6091 8.51528 20.391 8.60462 20.1385L10.037 16.0926L13.9758 14.6213C14.2216 14.5296 14.4339 14.3623 14.584 14.1423C14.7341 13.9222 14.8146 13.6601 14.8146 13.3914C14.8146 13.1228 14.7341 12.8606 14.584 12.6406C14.4339 12.4205 14.2216 12.2533 13.9758 12.1615ZM9.4003 14.6541C9.22512 14.7193 9.06603 14.8233 8.93428 14.9586C8.80252 15.094 8.70132 15.2574 8.63783 15.4373L7.40728 18.9139L6.17673 15.4373C6.11323 15.2574 6.01203 15.094 5.88028 14.9586C5.74852 14.8233 5.58943 14.7193 5.41426 14.6541L2.02976 13.3914L5.41426 12.1274C5.58943 12.0622 5.74852 11.9582 5.88028 11.8229C6.01203 11.6876 6.11323 11.5241 6.17673 11.3442L7.40728 7.86767L8.63783 11.3442C8.70132 11.5241 8.80252 11.6876 8.93428 11.8229C9.06603 11.9582 9.22512 12.0622 9.4003 12.1274L12.7848 13.3914L9.4003 14.6541Z" fill="white"/>
<path d="M15.6645 3.44455L14.089 2.65005L13.5161 0.465269C13.4803 0.328921 13.4152 0.211129 13.3295 0.12789C13.2438 0.0446513 13.1417 0 13.0371 0C12.9325 0 12.8304 0.0446513 12.7447 0.12789C12.6591 0.211129 12.5939 0.328921 12.5582 0.465269L11.9853 2.65005L10.4097 3.44455C10.3114 3.49411 10.2265 3.58443 10.1664 3.70325C10.1064 3.82207 10.0742 3.96362 10.0742 4.1087C10.0742 4.25377 10.1064 4.39533 10.1664 4.51415C10.2265 4.63297 10.3114 4.72329 10.4097 4.77285L11.9853 5.56735L12.5582 7.75213C12.5939 7.88848 12.6591 8.00627 12.7447 8.08951C12.8304 8.17275 12.9325 8.2174 13.0371 8.2174C13.1417 8.2174 13.2438 8.17275 13.3295 8.08951C13.4152 8.00627 13.4803 7.88848 13.5161 7.75213L14.089 5.56735L15.6645 4.77285C15.7628 4.72329 15.8478 4.63297 15.9078 4.51415C15.9678 4.39533 16 4.25377 16 4.1087C16 3.96362 15.9678 3.82207 15.9078 3.70325C15.8478 3.58443 15.7628 3.49411 15.6645 3.44455ZM13.8343 4.79056C13.7643 4.82578 13.7006 4.88191 13.6479 4.95499C13.5952 5.02808 13.5547 5.11632 13.5294 5.21349L13.0371 7.09081L12.5449 5.21349C12.5195 5.11632 12.479 5.02808 12.4263 4.95499C12.3736 4.88191 12.31 4.82578 12.2399 4.79056L10.8861 4.1087L12.2399 3.42613C12.31 3.39091 12.3736 3.33478 12.4263 3.2617C12.479 3.18861 12.5195 3.10037 12.5449 3.0032L13.0371 1.12588L13.5294 3.0032C13.5547 3.10037 13.5952 3.18861 13.6479 3.2617C13.7006 3.33478 13.7643 3.39091 13.8343 3.42613L15.1881 4.1087L13.8343 4.79056Z" fill="white"/>
</svg>
