<svg width="47" height="46" viewBox="0 0 47 46" fill="none" xmlns="http://www.w3.org/2000/svg">
<path d="M22.6727 4.80259V20.5875C22.6727 20.9877 22.7994 21.3229 23.0526 21.5932C23.3059 21.8635 23.6189 21.9991 23.9918 22C24.3646 22.0009 24.6781 21.8653 24.9323 21.5932C25.1864 21.321 25.3126 20.9858 25.3108 20.5875V4.80259L31.7742 11.7239C32.038 12.0064 32.3457 12.142 32.6975 12.1307C33.0492 12.1194 33.357 11.9721 33.6208 11.6886C33.8626 11.4061 33.9888 11.0765 33.9994 10.6998C34.0099 10.3232 33.8838 9.99359 33.6208 9.71109L24.9151 0.388466C24.7832 0.247214 24.6403 0.146924 24.4864 0.0875981C24.3325 0.0282723 24.1677 -0.000920089 23.9918 2.15899e-05C23.8159 0.000963269 23.651 0.0301557 23.4971 0.0875981C23.3432 0.145041 23.2004 0.245331 23.0684 0.388466L14.3627 9.71109C14.1209 9.97005 14 10.2935 14 10.6815C14 11.0695 14.1209 11.4052 14.3627 11.6886C14.6265 11.9711 14.94 12.1124 15.3032 12.1124C15.6664 12.1124 15.9794 11.9711 16.2424 11.6886L22.6727 4.80259Z" fill="#242424"/>
<path d="M45 21H2C1.44772 21 1 21.4477 1 22V30C1 30.5523 1.44772 31 2 31H45C45.5523 31 46 30.5523 46 30V22C46 21.4477 45.5523 21 45 21Z" stroke="#242424" stroke-width="2"/>
<path d="M45 35H2C1.44772 35 1 35.4477 1 36V44C1 44.5523 1.44772 45 2 45H45C45.5523 45 46 44.5523 46 44V36C46 35.4477 45.5523 35 45 35Z" stroke="#242424" stroke-width="2"/>
</svg>
