<?xml version="1.0" encoding="UTF-8"?><svg xmlns="http://www.w3.org/2000/svg" xmlns:xlink="http://www.w3.org/1999/xlink" height="577.4" preserveAspectRatio="xMidYMid meet" version="1.0" viewBox="-5.8 -17.9 605.8 577.4" width="605.8" zoomAndPan="magnify"><defs><clipPath id="a"><path d="M 0 107 L 525 107 L 525 559.5 L 0 559.5 Z M 0 107"/></clipPath></defs><g><g id="change1_1"><path d="M 447.875 535.285156 C 479.972656 535.285156 519.503906 549.375 537.296875 515.128906 C 546.386719 497.636719 542.738281 477.765625 545.976562 458.996094 C 541.429688 472.519531 519.894531 480.214844 523.1875 458.890625 C 526.300781 438.699219 546.863281 439.003906 556.558594 425.050781 C 565.179688 412.640625 564.3125 394.398438 563.679688 380.050781 C 562.871094 361.671875 561.394531 348.644531 580.140625 339.347656 C 570.269531 344.242188 564.574219 340.703125 556.820312 351.5 C 551.609375 358.753906 554.332031 373.386719 545.914062 378.273438 C 535.746094 384.160156 533.460938 374.058594 536.507812 366.5625 C 514.367188 378.183594 517.847656 412.761719 490.105469 418.335938 C 463.726562 423.636719 450.8125 391.011719 477.976562 385.445312 C 456.769531 361.234375 427.171875 413.476562 412.820312 420.230469 C 393.933594 429.121094 390.691406 411.117188 405.085938 400.949219 C 374.917969 405.6875 385.003906 438.429688 365.554688 448.269531 C 345.089844 458.621094 353.820312 436.449219 357.546875 427.304688 C 369.972656 396.824219 366.636719 386.5625 357.925781 356.019531 C 353.671875 377.933594 330.722656 369.199219 335.519531 347.675781 C 339.964844 327.757812 352.238281 320.589844 342.722656 298.753906 C 339.9375 316.199219 320.960938 310.152344 317.796875 296.839844 C 313.851562 280.242188 334.136719 262.863281 344.464844 254.59375 C 319.195312 251.019531 289.699219 266.269531 279.128906 289.824219 C 276.5625 295.542969 275.691406 309.386719 266.398438 307.480469 C 249.292969 303.964844 267.21875 281.128906 271.988281 275.671875 C 287.402344 258.019531 291.179688 239.234375 293.511719 216.832031 C 295.089844 201.671875 299.136719 177.035156 319.746094 179.480469 C 309.972656 178.320312 297.597656 181.6875 289.328125 187.011719 C 282.066406 191.6875 276.800781 203.144531 268.910156 205.949219 C 252.859375 211.664062 247.847656 196.664062 259.011719 190.585938 C 240.71875 195.730469 240.417969 214.539062 226.730469 223.722656 C 218.414062 229.300781 204.710938 228.164062 205.742188 215.753906 C 206.453125 207.171875 220.691406 200.097656 226.980469 195.699219 C 242.46875 184.882812 259.507812 173.34375 248.660156 152.28125 C 248.058594 161.964844 240.722656 175.394531 230.769531 165.261719 C 224.28125 158.65625 228.953125 146.300781 227.71875 138.167969 C 225.214844 121.6875 225.457031 107.714844 240.539062 97.183594 C 249.992188 90.578125 261.273438 89.574219 271.34375 84.039062 C 276.054688 81.453125 281.929688 78.515625 284.9375 73.816406 C 285.757812 72.53125 288.351562 62.566406 288.136719 62.691406 C 265.574219 76.261719 264.683594 48.390625 275.335938 34.589844 C 290.292969 15.214844 312.351562 3.574219 336.289062 7.3125 C 309.609375 -17.921875 287.804688 31.40625 265.089844 17.230469 C 261.726562 15.132812 267.636719 12.136719 262.753906 9.683594 C 255.347656 5.960938 242.601562 15.925781 237.378906 20.203125 C 226.984375 28.707031 195.925781 82.128906 177.332031 69.648438 C 171.800781 65.933594 179.730469 60.699219 183.386719 60.941406 C 171.238281 60.222656 158.164062 62.753906 146.945312 67.277344 C 132.109375 73.253906 129.492188 82.742188 119.578125 94.027344 C 115.136719 99.085938 96.683594 116.65625 89.511719 105.496094 C 85.324219 98.980469 94.332031 92.441406 99.535156 89.839844 C 88.621094 85.167969 74.570312 90.300781 65.15625 96.488281 C 52.714844 104.671875 53.972656 111.929688 48.347656 123.367188 C 37.972656 144.464844 13.859375 135.609375 28.609375 114.433594 C 14.96875 121.035156 14.523438 134.894531 12.105469 147.9375 C 10.65625 155.761719 8.570312 182.335938 1.398438 186.003906 C 6.65625 183.316406 11.328125 179.367188 16.476562 176.898438 C 13.847656 197.320312 -5.753906 214.0625 8.710938 236.546875 C 11.265625 233.5625 14.085938 230.621094 17.386719 232.359375 C 13.515625 241.285156 18.558594 252.644531 20.449219 261.492188 C 22.664062 271.886719 22.636719 281.945312 22.71875 292.574219 C 22.914062 318.257812 22.960938 343.949219 22.960938 369.636719 C 22.960938 369.65625 22.960938 535.199219 22.960938 535.285156 C 22.960938 535.285156 120.707031 535.285156 126.394531 535.285156 C 157.503906 535.285156 188.609375 535.285156 219.722656 535.285156 C 235.550781 535.285156 252.015625 533.960938 267.777344 535.277344 C 280.035156 536.296875 291.035156 541.257812 303.019531 543.707031 C 325.082031 548.203125 347.527344 535.296875 369.871094 535.285156 C 395.871094 535.273438 421.875 535.285156 447.875 535.285156" fill="#f00"/></g><g id="change2_1"><path d="M 323.660156 373.453125 C 325.425781 369.003906 325.488281 364.269531 326.566406 360.195312 C 321.378906 363.320312 312.152344 373.207031 305.292969 370.636719 C 289.171875 364.589844 315.664062 338.460938 317.300781 331.199219 C 318.886719 324.152344 299.777344 278.320312 316.921875 277.273438 C 295.582031 278.582031 296.59375 304.714844 295.925781 320.335938 C 295.484375 330.742188 288.804688 377.28125 267.332031 361.167969 C 261.101562 356.488281 263.375 346.824219 268.363281 342.027344 C 247.941406 348.367188 251.597656 377.566406 243.554688 392.972656 C 238.089844 403.425781 222.339844 430.917969 207.242188 418.902344 C 194.832031 409.011719 207.523438 389.820312 214.253906 381.476562 C 192.660156 391.050781 202.082031 439.226562 174.058594 436.097656 C 182.441406 431.300781 184.304688 420.660156 183.8125 411.84375 C 182.816406 394.167969 176.730469 384.769531 184.992188 366.699219 C 196.414062 341.710938 219.769531 320.800781 247.191406 320.109375 C 243.335938 311.472656 237.238281 307.710938 238.445312 296.03125 C 239.8125 282.816406 247.589844 272.386719 257.375 263.875 C 275.210938 248.355469 288.988281 232.328125 284.90625 207.019531 C 282.234375 228.785156 260.960938 217.292969 250.648438 232.550781 C 246.464844 238.738281 243.464844 257.585938 231.050781 252.710938 C 221.144531 248.820312 229.023438 240.035156 234.507812 235.683594 C 211.367188 240.011719 211.539062 260.929688 204.183594 277.382812 C 200.492188 285.640625 187.878906 300.339844 177.09375 296.316406 C 166.5625 292.394531 172.324219 281.503906 178.613281 276 C 160.148438 282.902344 157 303.160156 146.191406 316.671875 C 137.148438 327.976562 117.371094 333.71875 113.9375 314.664062 C 109.53125 290.167969 137.632812 282.265625 154.058594 274.460938 C 173.035156 265.441406 174.933594 253.796875 182.246094 237.789062 C 181.523438 249.339844 163.386719 249.855469 156.5625 243.695312 C 144.441406 232.753906 161.964844 213.246094 169.777344 204.140625 C 179.246094 193.109375 192.277344 190.753906 204.535156 183.128906 C 214.539062 176.90625 220.90625 169.546875 222.636719 157.789062 C 225.191406 140.386719 213.375 124.332031 216.996094 106.363281 C 219.796875 92.441406 233.226562 72.894531 249.535156 73.4375 C 237.738281 73.039062 234.332031 63.824219 220.347656 70.410156 C 210.191406 75.191406 207.457031 82.421875 201.464844 90.722656 C 194.875 99.839844 173.113281 127.683594 160.207031 114.363281 C 151.910156 105.800781 162.738281 92.628906 169.429688 87.558594 C 113.757812 91.636719 134.53125 179.011719 83.589844 180.515625 C 42.214844 181.742188 74.472656 125.464844 86.71875 110.726562 C 61.402344 111.878906 58.300781 136.269531 43.167969 149.433594 C 35.8125 155.832031 16.824219 156.773438 24.964844 142.804688 C 15.378906 151.039062 24.441406 167.242188 23.28125 177.613281 C 21.894531 189.980469 8.382812 202.6875 14.890625 215.847656 C 29.34375 216.195312 22.464844 265.351562 22.574219 276.257812 C 22.886719 307.332031 22.960938 338.429688 22.960938 369.636719 L 22.960938 535.285156 C 23.1875 535.285156 23.417969 535.285156 23.648438 535.285156 C 48.886719 535.285156 74.128906 535.285156 99.367188 535.285156 C 148.679688 535.285156 197.992188 535.285156 247.304688 535.285156 C 295.476562 535.285156 343.652344 535.285156 391.824219 535.285156 C 418.921875 535.285156 446.253906 538.546875 473.117188 533.390625 C 485.816406 530.953125 499.890625 526.90625 509.148438 517.285156 C 513.371094 512.898438 517.980469 504.972656 520.222656 499.417969 C 521.738281 495.664062 521.367188 480.21875 523.359375 478.453125 C 500.890625 498.402344 495.820312 468.492188 507.605469 452.605469 C 514.839844 442.859375 527.4375 438.65625 533.472656 427.488281 C 537.988281 419.125 537.082031 410.023438 537.351562 400.730469 C 532.546875 418.257812 513.964844 421.9375 500.429688 429.371094 C 486.59375 436.972656 494.367188 438.421875 491.578125 450.378906 C 489.570312 458.976562 477.953125 471.605469 469.320312 462.054688 C 462.449219 454.453125 470.527344 442.398438 479.65625 443.730469 C 463.097656 438.230469 458.578125 428.25 440.589844 437.316406 C 416.632812 449.394531 421.105469 429.273438 439.3125 421.710938 C 412.324219 416.636719 403.015625 448.898438 394.902344 466.535156 C 385.730469 486.453125 356.289062 483.875 374.121094 465.417969 C 357.597656 470.109375 354.582031 482.035156 345.945312 494.433594 C 340.894531 501.6875 322.160156 518.988281 312.882812 509.21875 C 304.070312 499.941406 319.335938 480.757812 323.535156 472.546875 C 331.199219 457.566406 332.230469 440.214844 329.335938 423.707031 C 329.148438 441.300781 312.707031 478.917969 288.667969 462.175781 C 260.789062 442.761719 316.558594 391.335938 323.660156 373.453125" fill="#ff6400"/></g><g id="change1_2"><path d="M 360.105469 222.546875 C 360.738281 224.414062 362.453125 226.109375 365.589844 227.542969 C 367.269531 228.308594 370.570312 225.996094 371.6875 224.953125 C 368.160156 235.210938 357.539062 241.0625 346.550781 240.851562 C 332.105469 240.566406 322.691406 236.441406 314.003906 251.339844 C 315.753906 236.5625 327.394531 198.109375 346.136719 196.378906 C 335.976562 203.847656 350.238281 209.242188 357.625 204.121094 C 362.75 200.566406 364.980469 193.433594 370.3125 189.476562 C 375.644531 185.515625 383.183594 181.820312 389.867188 181.34375 C 397.453125 180.800781 400.160156 183.855469 407.132812 179.605469 C 413.382812 175.789062 415.996094 164.769531 423.84375 164.34375 C 424.140625 164.003906 424.125 163.988281 423.796875 164.300781 C 414.671875 171.867188 419.222656 187.988281 411.480469 194.292969 C 408.546875 196.6875 402.53125 194.683594 399.347656 194.828125 C 389.777344 195.25 355.09375 207.878906 360.105469 222.546875" fill="#f00"/></g><g id="change1_3"><path d="M 338.222656 31.828125 C 341.855469 31.105469 345.667969 28.929688 349.910156 24.1875 C 352.59375 21.183594 354.097656 14.933594 357.5 12.746094 C 341.394531 23.097656 322.121094 11.992188 307.503906 28.074219 C 319.789062 25.054688 328.351562 33.796875 338.222656 31.828125" fill="#f00"/></g><g clip-path="url(#a)" id="change3_1"><path d="M 49.964844 391.003906 C 58.472656 370.128906 87.316406 358.195312 90.042969 334.953125 C 82.242188 351.144531 36.828125 359.351562 43.453125 331.921875 C 45.976562 321.460938 51.160156 327.351562 59.265625 323.222656 C 64.066406 320.777344 68.1875 314.542969 70.347656 309.933594 C 48.214844 324.207031 29.558594 289.492188 54.882812 278.960938 C 64.6875 274.886719 75.511719 280.085938 85.386719 274.117188 C 94.15625 268.816406 99.03125 260.0625 100.640625 250.699219 C 88.59375 262.941406 54.074219 275.882812 51.152344 247.621094 C 48.4375 221.363281 89.160156 228.652344 103.746094 228.691406 C 124.183594 228.746094 131.9375 218.234375 138.402344 199.511719 C 144.554688 181.703125 152.964844 175.261719 169.9375 167.101562 C 195.289062 154.917969 199.105469 134.519531 199.144531 107.933594 C 198.089844 123.367188 191.949219 151.429688 172.90625 155.003906 C 155.644531 158.238281 165.636719 136.9375 176.121094 136.820312 C 153.4375 134.480469 148.347656 163.550781 144.035156 178.515625 C 141.671875 186.710938 115.085938 215.46875 112.707031 193.554688 C 111.789062 185.09375 127.035156 175.085938 133.808594 172.523438 C 120.605469 167.9375 114.230469 182.125 107.601562 190.226562 C 95.640625 204.851562 73.34375 218.785156 53.554688 212.925781 C 22.382812 203.699219 41.722656 157.242188 60.335938 144.101562 C 48.589844 147.660156 36.476562 177.460938 23.726562 164.382812 C 28.207031 179.113281 16.035156 185.375 9.949219 196.820312 C -6.238281 227.269531 2.425781 264.863281 2.0625 297.847656 C 2.207031 284.664062 12.636719 281.503906 21.90625 275.863281 C 14.15625 286.238281 20.589844 289.792969 21.171875 299.730469 C 22.027344 314.375 9.8125 328.117188 3.304688 339.847656 C 9.289062 338.601562 15.757812 336.539062 19.554688 330.679688 C 14.011719 348.441406 -5.214844 368.179688 1.351562 388.285156 C 2.3125 383.375 6.921875 376.925781 11.707031 375.242188 C 10.359375 383.183594 4.863281 392.046875 7.929688 400.273438 C 11.519531 399.542969 13.277344 395.304688 16.523438 393.226562 C 11.375 406.777344 5.152344 431.160156 9.628906 445.449219 C 11.972656 441.308594 16.289062 438.617188 21.125 438.9375 C 13.152344 446.617188 17.113281 456.523438 15.585938 466.238281 C 14.054688 475.960938 3.582031 486.746094 6.765625 496.179688 C 9.78125 493.039062 12.976562 489.363281 17.546875 489.628906 C 14.289062 498.765625 7.453125 505.703125 12.664062 516.285156 C 13.847656 515.894531 15.335938 515.855469 16.5 515.417969 C 13.976562 526.984375 11.835938 540.703125 16.628906 552.304688 C 12.527344 542.378906 39.503906 540.332031 43.328125 540.15625 C 56.894531 539.523438 68.148438 541.570312 80.109375 533.324219 C 78.726562 536.230469 78.328125 539.664062 78.835938 542.867188 C 85.824219 543.28125 94.023438 540.085938 100.53125 537.570312 C 99.503906 550.050781 161.558594 535.597656 166.976562 533.351562 C 163.574219 536.550781 160.492188 540.898438 158.730469 544.964844 C 157.5625 547.664062 174.089844 544.214844 175.40625 543.90625 C 182.480469 542.257812 189.875 540.859375 195.851562 536.417969 C 191.570312 541.324219 187.757812 546.667969 180.871094 549.476562 C 189.050781 549.457031 196.179688 551.039062 204.453125 548.289062 C 217.039062 544.105469 226.976562 536.992188 241.050781 538.914062 C 237.171875 542.019531 232.257812 545.410156 229.695312 549.835938 C 230.488281 548.464844 281.992188 552.3125 288.035156 553.128906 C 307.695312 555.785156 326.578125 562.164062 346.585938 558.273438 C 362.199219 555.242188 377.039062 540.738281 393.640625 543.097656 C 400.019531 544.007812 404.679688 548.332031 411.324219 548.855469 C 422.019531 549.691406 430.3125 543.230469 440.34375 541.105469 C 451.222656 538.796875 462.753906 539.761719 473.691406 541.203125 C 489.894531 543.335938 511.621094 547.4375 524.097656 533.472656 C 522.171875 533.816406 520.113281 534.097656 517.96875 534.300781 C 502.007812 535.835938 481.03125 533.292969 470.742188 521.40625 C 458.765625 507.558594 473.152344 475.253906 492.730469 477.90625 C 466.898438 474.375 459.847656 494.164062 447.09375 511.90625 C 438.773438 523.476562 417.191406 532.347656 420.660156 509.5 C 423.40625 491.449219 445.214844 487.128906 453.273438 472.769531 C 457.21875 465.746094 458.984375 446.429688 450.925781 442.046875 C 451.210938 448.457031 446.660156 469.789062 436.402344 466.46875 C 426.785156 463.355469 436.480469 450.96875 440.894531 448.078125 C 422.070312 448.128906 420.882812 469.484375 416.414062 482.730469 C 414.585938 488.152344 409.5625 501.15625 401.019531 498.816406 C 395.007812 497.167969 394.589844 490.019531 397.925781 486.097656 C 381.609375 493.851562 387.933594 521.109375 368.011719 524.1875 C 348.003906 527.285156 354.078125 501.105469 363.363281 492.640625 C 339.390625 496.386719 337.144531 544.574219 307.546875 537.917969 C 287.292969 533.367188 297.175781 506.617188 281.433594 497.175781 C 283.214844 505.480469 286.550781 521.167969 278.109375 528.222656 C 267.667969 536.941406 260.589844 527.113281 260.039062 516.472656 C 259.386719 503.832031 268.707031 495.140625 274.070312 484.617188 C 280.507812 471.980469 275.550781 459.773438 276.625 446.480469 C 276.203125 457.503906 263.863281 474.898438 256.425781 461.261719 C 250.398438 450.210938 263.523438 426.886719 269.25 417.804688 C 278.859375 402.570312 281 397.21875 281.746094 380.109375 C 276.007812 391.703125 271.988281 409.246094 257.453125 412.734375 C 256.4375 408.136719 254.390625 407.617188 257.234375 402.9375 C 246.613281 407.757812 244.527344 418.558594 239.261719 427.722656 C 234.839844 435.40625 223.488281 462.621094 212.648438 461.175781 C 205.320312 460.191406 207.367188 451.097656 210.890625 447.234375 C 210.605469 446.855469 210.25 446.582031 209.8125 446.402344 C 185.644531 451.914062 191.070312 492.183594 167.789062 496.195312 C 146.761719 499.816406 158.894531 472.578125 170.980469 467.824219 C 149.140625 463.710938 145.351562 493.550781 133.390625 504.28125 C 121.65625 514.808594 98.574219 512.363281 101.785156 492.148438 C 104.75 473.492188 128.480469 472.386719 139.214844 461.378906 C 151.585938 448.703125 149.214844 435.535156 150.5 420.355469 C 149.804688 440.628906 121.179688 455.15625 119.371094 428.6875 C 118.003906 408.644531 135.066406 398.683594 144.046875 383.53125 C 152.304688 369.59375 147.566406 353.347656 160.683594 340.652344 C 170.289062 331.359375 184.304688 335.082031 193.167969 325.359375 C 200.65625 317.144531 200.25 303.503906 207.898438 295.070312 C 199.351562 301.683594 196.957031 314.058594 187.703125 321.246094 C 177.972656 328.804688 172.304688 323.882812 163.5 327.097656 C 149.347656 332.265625 153.09375 349.125 144.308594 358.703125 C 135.691406 368.097656 130.730469 359.621094 137.144531 351.742188 C 122.167969 363.917969 116.558594 379.570312 112.949219 398.164062 C 110.890625 408.746094 112.167969 427.832031 100.777344 433.277344 C 76.40625 444.925781 82.738281 393.007812 94.742188 384.546875 C 74.046875 390.78125 68.664062 422.132812 68.359375 440.199219 C 68.242188 447.203125 71.296875 452.898438 66.480469 458.730469 C 59.945312 454.046875 56.929688 438.566406 57.28125 430.859375 C 52.367188 433.816406 50.15625 439.273438 50.652344 445.09375 C 36.285156 433.894531 44.378906 404.710938 49.964844 391.003906" fill="#ffd400"/></g><g id="change1_4"><path d="M 426.726562 179.855469 C 426.007812 179.179688 425.597656 178.027344 425.65625 176.246094 C 425.851562 170.480469 430.648438 167.03125 435.546875 164.972656 C 439.511719 163.304688 443.921875 162.871094 448.183594 162.710938 C 450.023438 162.636719 453.886719 162.101562 455.203125 163.402344 C 447.191406 163.316406 444.4375 171.113281 439.566406 175.539062 C 437.140625 177.746094 429.988281 182.921875 426.726562 179.855469" fill="#f00"/></g><g id="change1_5"><path d="M 588.59375 354.992188 C 587.722656 355.070312 586.816406 355.042969 585.878906 354.882812 C 581.476562 354.160156 577.023438 350.011719 572.488281 351.785156 C 574.667969 346.710938 580.761719 344.242188 585.832031 345.699219 C 591.371094 347.289062 595.417969 349.003906 599.878906 343.941406 C 600.046875 343.753906 600.039062 343.734375 599.863281 343.894531 C 598.449219 349.511719 594.230469 354.503906 588.59375 354.992188" fill="#f00"/></g><g id="change1_6"><path d="M 382.269531 258.839844 C 382.140625 266.828125 382.421875 274.367188 370.640625 273.753906 C 367.121094 273.574219 350.949219 268.992188 349.230469 274.613281 C 353.351562 261.121094 377.699219 266.742188 383.363281 249.683594 C 382.433594 252.492188 382.320312 255.699219 382.269531 258.839844" fill="#f00"/></g></g></svg>