<?xml version="1.0" encoding="UTF-8" standalone="no"?><svg xmlns="http://www.w3.org/2000/svg" xmlns:xlink="http://www.w3.org/1999/xlink" fill="#4f399f" height="1326" preserveAspectRatio="xMidYMid meet" version="1" viewBox="0.0 0.0 1522.7 1326.0" width="1522.7" zoomAndPan="magnify"><defs><clipPath id="a"><path d="M 0 0 L 1522.660156 0 L 1522.660156 1326.039062 L 0 1326.039062 Z M 0 0"/></clipPath></defs><g><g clip-path="url(#a)" id="change1_1"><path d="M 1272.261719 83.738281 C 788.789062 -159.449219 810.128906 200.191406 558.222656 242.558594 C 399.238281 269.300781 285.597656 15.410156 111.714844 173.789062 C 6.855469 269.300781 -12.996094 421.777344 6.855469 563.476562 C 26.722656 686.964844 157.777344 742.984375 205.941406 850.730469 C 258.09375 958.253906 216.613281 1167.761719 311.289062 1247.339844 C 456.742188 1369.589844 602.195312 1339.03125 719.214844 1226.820312 C 808.4375 1141.261719 801.878906 1003.738281 882.953125 914.960938 C 967.640625 823.492188 1135.820312 809.078125 1242.609375 763.183594 C 1603.261719 628.335938 1618.160156 259.261719 1272.261719 83.738281"/></g></g></svg>