  <svg width="25" height="25" viewBox="0 0 25 25" fill="none" xmlns="http://www.w3.org/2000/svg">
              <path
                d="M21.4938 4.1545C21.4938 4.1545 23.4365 3.397 23.2746 5.23664C23.2206 5.99415 22.735 8.6454 22.3572 11.5131L21.0621 20.0079C21.0621 20.0079 20.9542 21.2524 19.9829 21.4688C19.0115 21.6852 17.5546 20.7113 17.2847 20.4949C17.0689 20.3326 13.2376 17.8977 11.8885 16.7074C11.5107 16.3827 11.079 15.7334 11.9424 14.9759L17.6085 9.56525C18.2561 8.91595 18.9036 7.40095 16.2055 9.2406L8.65073 14.3808C8.65073 14.3808 7.78733 14.9218 6.16848 14.4349L2.66089 13.3527C2.66089 13.3527 1.36579 12.5411 3.57826 11.7295C8.97453 9.18645 15.6119 6.5893 21.4938 4.1545Z"
                fill="white"></path>
            </svg>