<svg width="47" height="47" viewBox="0 0 47 47" fill="none" xmlns="http://www.w3.org/2000/svg">
<path d="M22.6727 42.1974V26.4125C22.6727 26.0123 22.7994 25.6771 23.0526 25.4068C23.3059 25.1365 23.6189 25.0009 23.9918 25C24.3646 24.9991 24.6781 25.1347 24.9323 25.4068C25.1864 25.679 25.3126 26.0142 25.3108 26.4125V42.1974L31.7742 35.2761C32.038 34.9936 32.3457 34.858 32.6975 34.8693C33.0492 34.8806 33.357 35.0279 33.6208 35.3114C33.8626 35.5939 33.9888 35.9235 33.9994 36.3002C34.0099 36.6768 33.8838 37.0064 33.6208 37.2889L24.9151 46.6115C24.7832 46.7528 24.6403 46.8531 24.4864 46.9124C24.3325 46.9717 24.1677 47.0009 23.9918 47C23.8159 46.999 23.651 46.9698 23.4971 46.9124C23.3432 46.855 23.2004 46.7547 23.0684 46.6115L14.3627 37.2889C14.1209 37.03 14 36.7065 14 36.3185C14 35.9305 14.1209 35.5948 14.3627 35.3114C14.6265 35.0289 14.94 34.8876 15.3032 34.8876C15.6664 34.8876 15.9794 35.0289 16.2424 35.3114L22.6727 42.1974Z" fill="#F7D857"/>
<path d="M45 1H2C1.44772 1 1 1.44772 1 2V10C1 10.5523 1.44772 11 2 11H45C45.5523 11 46 10.5523 46 10V2C46 1.44772 45.5523 1 45 1Z" stroke="#F7D857" stroke-width="2"/>
<path d="M45 15H2C1.44772 15 1 15.4477 1 16V24C1 24.5523 1.44772 25 2 25H45C45.5523 25 46 24.5523 46 24V16C46 15.4477 45.5523 15 45 15Z" stroke="#F7D857" stroke-width="2"/>
</svg>
