<svg xmlns="http://www.w3.org/2000/svg" width="32" height="32" viewBox="0 0 24 24"><path fill="#f7d857" d="M21.553 6.064A.75.75 0 0 1 22 6.75v10.5a.75.75 0 0 1-1.256.554l-5.75-5.25a.75.75 0 0 1 0-1.108l5.75-5.25a.75.75 0 0 1 .809-.132M2.447 17.936A.75.75 0 0 1 2 17.25V6.75a.75.75 0 0 1 1.256-.554l5.75 5.25a.75.75 0 0 1 0 1.108l-5.75 5.25a.75.75 0 0 1-.809.132M7.387 12L3.5 8.45v7.1L7.388 12Zm9.226 0l3.887 3.55v-7.1L16.612 12ZM12 2.75a.75.75 0 0 1 .75.75v1a.75.75 0 0 1-1.5 0v-1a.75.75 0 0 1 .75-.75m0 4a.75.75 0 0 1 .75.75v1a.75.75 0 0 1-1.5 0v-1a.75.75 0 0 1 .75-.75m0 8a.75.75 0 0 1 .75.75v1a.75.75 0 0 1-1.5 0v-1a.75.75 0 0 1 .75-.75m0 4a.75.75 0 0 1 .75.75v1a.75.75 0 0 1-1.5 0v-1a.75.75 0 0 1 .75-.75m0-8a.75.75 0 0 1 .75.75v1a.75.75 0 0 1-1.5 0v-1a.75.75 0 0 1 .75-.75"/></svg>